<?xml version="1.0" encoding="utf-8"?>
<!-- Generator: Adobe Illustrator 22.1.0, SVG Export Plug-In . SVG Version: 6.00 Build 0)  -->
<svg version="1.1" id="Capa_1" xmlns="http://www.w3.org/2000/svg" xmlns:xlink="http://www.w3.org/1999/xlink" x="0px" y="0px"
	 width="270px" height="43px" viewBox="0 0 270 43" enable-background="new 0 0 270 43" xml:space="preserve">
<g>
	<g>
		<g>
			<path fill="#FFFFFF" d="M3.4,27.1c0-6.1,4-8.5,8-8.5c4,0,8,2.5,8,8.5c0,6-4,8.5-8,8.5S3.4,33.2,3.4,27.1z M15.6,27.1
				c0-3.1-1.3-5.3-4.2-5.3c-2.8,0-4.2,2-4.2,5.3c0,3.1,1.3,5.4,4.2,5.4C14.2,32.5,15.6,30.5,15.6,27.1z"/>
			<path fill="#FFFFFF" d="M20.9,18.9h3.8v2.2c1.1-1.1,3-2.5,6-2.5c2.9,0,4.7,1.7,4.7,5v11.8h-3.8V24.5c0-1.8-0.8-2.7-2.4-2.7
				c-1.7,0-3.1,0.9-4.5,2.1v11.4h-3.8V18.9z"/>
			<path fill="#FFFFFF" d="M36.7,27.1c0-6.3,4.4-8.5,7.8-8.5c3.7,0,7.2,2.2,7.2,8.9v0.9H40.5c0.2,3,2,4.3,4.4,4.3
				c2.1,0,3.4-0.7,4.6-1.9l2,2c-1.7,1.9-4,3-6.9,3C40.5,35.7,36.7,33.2,36.7,27.1z M48.2,25.5c-0.2-2.5-1.5-3.8-3.7-3.8
				c-1.9,0-3.6,1.1-3.9,3.8H48.2z"/>
		</g>
	</g>
	<g>
		<g>
			<path fill="#FFFFFF" d="M103.8,27.1c0-6.1,4-8.5,8-8.5c4,0,8,2.5,8,8.5c0,6-4,8.5-8,8.5S103.8,33.2,103.8,27.1z M116,27.1
				c0-3.1-1.3-5.3-4.2-5.3c-2.8,0-4.2,2-4.2,5.3c0,3.1,1.3,5.4,4.2,5.4C114.6,32.5,116,30.5,116,27.1z"/>
			<path fill="#FFFFFF" d="M121.3,18.9h3.8v2.2c1.1-1.1,3-2.5,6-2.5c2.9,0,4.7,1.7,4.7,5v11.8H132V24.5c0-1.8-0.8-2.7-2.4-2.7
				s-3.1,0.9-4.5,2.1v11.4h-3.8V18.9z"/>
			<path fill="#FFFFFF" d="M137.1,27.1c0-6.3,4.4-8.5,7.8-8.5c3.7,0,7.2,2.2,7.2,8.9v0.9h-11.2c0.2,3,2,4.3,4.4,4.3
				c2.1,0,3.4-0.7,4.6-1.9l2,2c-1.7,1.9-4,3-6.9,3C140.9,35.7,137.1,33.2,137.1,27.1z M148.7,25.5c-0.2-2.5-1.5-3.8-3.7-3.8
				c-1.9,0-3.6,1.1-3.9,3.8H148.7z"/>
		</g>
	</g>
	<g>
		<path fill="#B3AB9C" d="M70.4,8L70.4,8C70.5,8,70.5,8,70.4,8C70.5,8,70.5,7.9,70.4,8c0.1,0,0.1,0,0.2,0c0.1,0,0.1,0,0,0.1
			c0.3-0.1,0.7-0.1,1-0.1c0.3,0,0.7,0,1.1-0.1c0,0,0.1,0,0.1,0.1c0.3-0.2,0.6-0.2,0.9-0.1c0.1,0,0.1,0,0.1,0c0,0,0,0,0-0.1
			c0,0.1,0.2,0.1,0.3,0c0.2-0.1,0.3-0.1,0.4,0.1c0.2-0.1,0.4-0.1,0.7-0.1c0.3,0,0.5,0,0.8-0.1v0.1h0.1h0.1c0,0,0-0.1,0-0.1
			c0,0,0,0,0,0.1l-0.1-0.1c0.1,0,0.2-0.1,0.3,0c0.1,0,0.2,0,0.3,0c0,0,0,0.1,0,0c0,0,0,0,0,0c0.3-0.1,0.6-0.1,0.8-0.1V8
			c0.1,0,0.1,0,0.1-0.1c0,0,0-0.1,0-0.1c0.4,0,0.7,0.1,1,0c0.3,0,0.6,0,1,0.1c0,0.1,0,0.1-0.1,0c0-0.1-0.1-0.1-0.1,0
			c0.1,0.1,0.2,0.1,0.4,0.1c0.2,0,0.3,0,0.4,0.1c0,0,0.1,0,0-0.1c0,0,0-0.1,0.1-0.1c0,0,0,0.1,0,0.1c0,0,0,0,0.1,0
			c0.1,0,0.1,0,0.1,0c0,0,0-0.1,0-0.1c1.2,0.1,2.4,0.3,3.5,0.4c1.2,0.1,2.2,0.5,3,1.1c-0.1,0.1-0.2,0.1-0.4,0.1c-0.2,0-0.4,0-0.5,0
			v0.1c-0.1,0-0.2,0-0.3,0c-0.1,0-0.2-0.1-0.3-0.1c0,0,0,0.1,0.1,0.1c0.1,0,0.1,0,0.1,0.1c-0.1,0-0.3-0.1-0.3,0
			c-0.1,0-0.2,0-0.4-0.1c0,0.1,0.1,0.1,0.3,0.1c0.1,0,0.2,0,0.2,0.1c-0.1,0-0.2-0.1-0.4-0.1c-0.1,0-0.3,0-0.4-0.1
			c-0.1,0-0.1,0.1-0.1,0.1c0,0,0.1,0,0.1,0.1c-0.2,0-0.3,0-0.4-0.1c-0.1,0-0.1,0.1,0,0.1c0,0,0,0,0,0c0,0,0,0.1-0.1,0.1h-0.9
			c0.1,0.1,0.2,0.1,0.3,0.1c0.1,0,0.2,0,0.3,0c0,0.1-0.1,0.1-0.2,0.1c-0.1,0-0.3-0.1-0.4-0.1c-0.1,0-0.3,0-0.5,0.1
			c-0.2,0-0.4,0.1-0.6,0.1c0,0,0,0.1,0.1,0.1c-0.2,0.1-0.5,0.1-0.8,0.1c-0.3,0-0.6,0-0.8,0.1c0,0-0.1,0-0.1-0.1
			c-0.1,0.1-0.3,0.2-0.4,0.2c-0.1,0-0.3,0-0.5-0.1c-0.2,0.1-0.5,0.1-0.8,0.1c-0.2,0.2-0.5,0.3-0.9,0.3c0-0.1,0.1-0.1,0.2-0.1
			c0.1,0,0.1,0,0.2-0.1c-0.1,0-0.2-0.1-0.4-0.1c-0.1,0-0.3,0-0.4,0.1c-0.1,0,0,0,0,0c0.1,0,0.1-0.1,0-0.1c-0.1,0-0.2,0.1-0.3,0.1
			c-0.1,0-0.2,0.1-0.3,0.1c0,0,0-0.1,0.1-0.1c-0.1-0.1-0.2-0.1-0.3,0c-0.1,0.1-0.2,0.1-0.3-0.1c-0.1,0-0.2,0.1-0.3,0.1
			c-0.1,0-0.2,0.1-0.3,0.1V11c-0.1,0.1-0.2,0.2-0.3,0.2c-0.1,0-0.2,0.1-0.3,0.2c0-0.1-0.1-0.1,0-0.1c0,0,0,0,0-0.1c0,0-0.1,0-0.1,0
			c-0.1,0-0.1,0-0.2,0c0.1,0,0.2,0.1,0.4,0.1c0,0.1,0,0.1,0.1,0.1c0,0.1,0,0.1,0.1,0.1c-0.1,0.1-0.4,0.2-0.7,0.2
			c-0.3,0-0.5,0-0.6-0.1c0.2,0,0.4,0,0.5,0c0.1,0,0.2-0.1,0.3-0.1c-0.3-0.1-0.7-0.1-1.3,0v0.1c-0.1,0-0.2,0-0.2-0.1
			c0,0-0.1,0-0.1,0.1h0.1c-0.2,0-0.4,0.1-0.7,0c-0.2,0-0.5,0-0.7,0.1h-0.1c0,0-0.1,0-0.1,0c0,0,0,0-0.1,0c0,0-0.1,0.1-0.1,0.1
			c0,0,0,0.1-0.1,0.1c0.2,0,0.5,0,0.6,0c0.2,0,0.4,0,0.6,0c0,0.1-0.2,0.1-0.3,0.1c-0.2,0-0.3,0-0.3,0.1c-0.3,0-0.6,0-0.8,0
			c-0.3,0-0.6,0-0.8,0.1c0.1-0.1,0.1-0.1,0-0.1c-0.1,0-0.2,0-0.3,0c0.4,0,0.7,0,0.9-0.1c-0.2-0.1-0.5-0.1-0.8,0
			c-0.3,0.1-0.5,0.2-0.7,0.3c-0.1,0-0.1,0-0.1,0c0,0,0-0.1,0-0.1c0,0-0.1,0.1-0.3,0.2c-0.1-0.1-0.2-0.1-0.3,0
			c-0.1,0.1-0.2,0.1-0.3,0c0-0.1,0-0.1,0.1-0.1c0-0.1,0-0.1-0.1-0.1c-0.1,0-0.2,0.1-0.2,0.1c0,0,0,0.1,0.1,0.1H69
			c-0.2,0.1-0.4,0.2-0.6,0.2c-0.2,0-0.4,0-0.7,0c-0.1,0.1-0.2,0.2-0.2,0.4c0,0.1-0.1,0.3-0.2,0.4c0,0.4-0.2,0.7-0.5,1
			c0,0.2-0.1,0.5-0.2,0.8c-0.1,0.3-0.2,0.5-0.4,0.7c0,0.1,0,0.2,0,0.3c-0.2,0.4-0.4,0.8-0.5,1.3c-0.1,0.4-0.3,0.9-0.6,1.3v0.1h0.1
			c-0.1,0.2-0.2,0.5-0.3,0.8c0,0.3-0.1,0.5-0.3,0.7c0,0.1,0,0.2,0.1,0.2c-0.1,0.3-0.3,0.7-0.4,1.1c-0.1,0.4-0.2,0.8-0.3,1.2
			c0,0.1,0,0.1,0.1,0.1c0,0,0,0,0,0c-0.1,0.1-0.2,0.3-0.2,0.5c0,0.2-0.1,0.3-0.2,0.5c0,0.2,0,0.3,0,0.4c-0.1,0.1-0.1,0.2-0.2,0.3
			c0,0.2,0,0.5-0.1,0.7c-0.1,0.2-0.2,0.4-0.3,0.6c0,0,0,0.1,0.1,0.1c-0.1,0.4-0.2,0.8-0.2,1.3c0,0.5-0.2,0.9-0.4,1.3
			c0.1,0.6,0,1.1-0.3,1.4c0.2,0.2,0.2,0.5,0.1,0.7c-0.1,0.2-0.2,0.4-0.3,0.6l0.1,0.1c0,0.1,0,0.2,0,0.2c0,0,0,0,0.1,0
			c0,0.1-0.1,0.2-0.1,0.3c0,0.1,0,0.2-0.1,0.3c0,0.1,0,0.2,0.1,0.1c0,0.2-0.1,0.4-0.1,0.6c0,0.2,0,0.3-0.1,0.5
			c0.1,0.2,0.1,0.4,0.1,0.6c0,0.2-0.1,0.4-0.2,0.5c0,0,0,0.1,0.1,0.1c0,0,0.1,0,0.1,0.1c0,0.1,0,0.1-0.1,0.1c0,0-0.1,0-0.1,0.1
			c0,0.1,0.1,0.1,0.1,0.1c0,0,0-0.1,0.1-0.1v1.1c0,0,0,0.1,0.1,0.1c0,0,0.1,0.1,0.1,0.1c0.1,0.5,0.2,1,0.3,1.4
			c0.1,0.4,0.4,0.7,0.8,0.8c0.4,0,0.7,0,1,0c0.2,0,0.5-0.1,0.7-0.2c2-0.9,3.7-2,5.2-3.3c1.5-1.3,2.9-2.7,4.4-4
			c1.3-1.2,2.5-2.5,3.7-3.8c1.2-1.3,2.4-2.6,3.5-3.8c0.4-0.4,0.8-0.9,1.1-1.3c0.4-0.4,0.7-0.8,1-1.3c0.3-0.2,0.6-0.5,0.8-0.8
			c0.2-0.3,0.5-0.5,0.9-0.6c0.1,0.1,0.1,0.2,0.1,0.4c0,0.2,0,0.3-0.1,0.4l-0.1,0.1c0,0,0.1,0.1,0.1,0c0,0,0-0.1,0-0.1
			C86,19.8,86,19.9,86,20c-0.1,0.1-0.1,0.2-0.1,0.4c0,0-0.1-0.1-0.1-0.1c0,0.1,0,0.1-0.1,0.1c0,0,0,0,0,0.1
			c-0.1,0.1-0.1,0.2-0.1,0.3c0,0.1-0.1,0.2-0.2,0.3c0,0.2,0,0.2,0.1,0.1c0,0.1-0.1,0.2-0.1,0.2c0,0,0,0.1-0.1,0.1
			c-0.1,0-0.1,0,0-0.1c0,0,0-0.1-0.1-0.1c-0.1,0.1-0.1,0.3,0.1,0.6c0,0-0.1,0-0.1,0c0,0,0,0-0.1,0c0.1,0.2,0.1,0.4-0.1,0.5
			c-0.1,0.1-0.2,0.3-0.1,0.5c-0.1,0.1-0.3,0.3-0.5,0.7c0,0,0-0.1-0.1-0.1c0,0.2-0.1,0.3-0.2,0.4c-0.1,0.1-0.2,0.2-0.2,0.4
			c-0.1,0-0.3,0.1-0.4,0.3c-0.1,0.2-0.2,0.3-0.4,0.4c0,0,0,0.1,0,0.1c0,0,0,0,0,0c0,0,0,0.1-0.1,0.1v0.1c-0.1-0.1-0.1-0.1-0.1,0
			c0,0.1,0,0.2-0.1,0.3c0,0.1-0.1,0.2-0.2,0.3c-0.1,0-0.2,0.1-0.3,0.1c0,0-0.1,0.1,0,0.1c0,0,0,0-0.1,0v0.2c-0.1,0-0.1,0-0.1-0.1
			c0-0.1,0-0.1-0.1-0.1c0,0.2-0.1,0.5-0.3,0.6c-0.2,0.2-0.4,0.3-0.6,0.5v0.1c0,0-0.1,0-0.1,0c-0.2,0.2-0.4,0.5-0.5,0.7
			c-0.1,0.2-0.3,0.4-0.6,0.5c0,0.1,0,0.2,0,0.2c0,0,0-0.1,0-0.1c0,0,0,0-0.1-0.1c-0.1,0.2-0.2,0.4-0.2,0.5c0.1,0,0.2-0.1,0.2-0.2
			c0-0.1,0.1-0.1,0.3-0.1c-0.1,0.2-0.3,0.4-0.5,0.4c0,0,0-0.1-0.1-0.1c-0.1,0-0.2,0.1-0.2,0.3c0,0.1-0.1,0.2-0.2,0.3v-0.1
			c-0.2,0.1-0.3,0.3-0.4,0.5c0,0.2-0.1,0.4-0.3,0.6c0-0.1,0.1-0.1,0-0.1c0,0,0,0,0-0.1c0.1,0,0.2-0.2,0.2-0.4c-0.1,0-0.1,0-0.1,0.1
			c0,0.1,0,0.1,0,0.2c-0.1,0.2-0.2,0.4-0.4,0.5c-0.2,0.1-0.3,0.3-0.4,0.5l0.1,0.1c-0.1,0.2-0.1,0.4-0.3,0.6
			c-0.1,0.1-0.3,0.3-0.4,0.4c-0.1,0-0.1-0.1,0-0.1c0.1,0,0.1-0.1,0.1-0.2c-0.3,0.3-0.4,0.6-0.4,0.8c-0.2,0.1-0.4,0.3-0.6,0.6
			c-0.1,0.3-0.3,0.4-0.6,0.5c0.1-0.1,0.1-0.2,0.1-0.2c-0.2,0.2-0.4,0.4-0.6,0.6c-0.2,0.2-0.4,0.4-0.7,0.6v-0.1
			c0,0.3-0.1,0.6-0.4,0.7c-0.2,0.1-0.4,0.3-0.4,0.6c0,0,0,0-0.1,0.1V36c-0.1,0.1-0.2,0.2-0.2,0.4c0,0.2-0.1,0.3-0.3,0.3
			c0-0.1,0-0.3,0.1-0.5c-0.2,0.1-0.4,0.3-0.6,0.5c-0.1,0.2-0.3,0.4-0.6,0.6c0.1-0.1,0.2-0.3,0.1-0.4c0,0.1-0.1,0.2-0.2,0.3
			c-0.1,0.1-0.1,0.2-0.1,0.4c-0.1,0-0.2,0-0.3,0.1c-0.1,0.1-0.2,0.3-0.3,0.4c-0.1-0.1-0.2-0.1-0.3,0c-0.1,0.1-0.2,0.2-0.3,0.2
			c-0.1-0.2,0-0.4,0.2-0.4c0,0,0.1,0,0.1-0.1c0-0.1,0-0.1-0.1-0.2c-0.1,0-0.2,0.1-0.2,0.3c0,0.1-0.1,0.3-0.2,0.4v-0.1
			c-0.1,0.1-0.2,0.2-0.3,0.4c-0.1,0.2-0.2,0.3-0.3,0.3c0-0.1,0-0.2,0.1-0.2c0.1,0,0.1-0.1,0.1-0.3l-0.1-0.1c-0.1,0-0.1,0-0.1,0.1
			c0,0,0,0.1-0.1,0.1c0,0.1,0,0.2-0.1,0.3c-0.1,0-0.1,0.1-0.1,0.3c-0.2,0.1-0.5,0.3-0.6,0.4c-0.2,0.1-0.4,0.2-0.7,0.3
			c0,0,0-0.1,0-0.1c0,0,0,0,0-0.1c-0.1,0-0.1,0.1-0.1,0.3c-0.3,0.1-0.5,0.2-0.7,0.3c-0.1,0-0.1-0.1,0-0.1c0,0,0-0.1,0-0.1
			c-0.1,0.2-0.2,0.4-0.4,0.4c-0.1,0-0.3,0.1-0.5,0.3c-0.1,0-0.2,0-0.1-0.1c-0.1,0.1-0.2,0.2-0.4,0.3c-0.1,0.1-0.3,0.1-0.4,0
			c0,0-0.1,0-0.2,0.1c0-0.1-0.1-0.1-0.2-0.1c-0.1,0-0.2,0.1-0.3,0.1c0-0.1,0-0.2-0.1-0.2c0,0.1-0.2,0.2-0.4,0.2
			c-0.2,0-0.4,0-0.5-0.1l-0.1,0.1c0,0-0.1-0.1-0.3,0c-0.1,0-0.2,0-0.2-0.2c0,0-0.1,0-0.1,0c0,0-0.1,0-0.1,0c-0.1,0-0.2,0-0.2,0
			c0,0-0.1,0-0.2,0c-1.7-0.4-2.9-1.4-3.6-3c-0.7-1.5-1.2-3.2-1.5-5.2c-0.1-1.3-0.1-2.5,0-3.7c0.2-3,0.8-5.7,1.6-8.3
			c0.8-2.6,1.6-5.1,2.4-7.6c0-0.1-0.1-0.1-0.1-0.1c0,0-0.1,0.1-0.2,0.1c-0.1,0-0.2,0-0.2-0.1C61.2,13,61,13,60.8,13
			C60.5,13,60.3,13,60,13c-0.1-0.1-0.5-0.1-1-0.1c0-0.1-0.2-0.2-0.3-0.3c-0.2-0.1-0.3-0.1-0.4,0c-0.1-0.1-0.3-0.2-0.5-0.3
			c-0.2-0.1-0.4-0.2-0.6-0.4c-0.1-0.3-0.3-0.7-0.4-1.1c-0.1-0.4-0.2-0.8-0.3-1.2c0.1-0.1,0.1-0.3,0.1-0.4c0-0.1-0.1-0.3-0.1-0.5
			c0.1,0,0.1,0,0.1,0c0,0,0-0.1,0.1-0.1C57.3,9,57.7,9.1,58.1,9c0.4-0.1,0.8-0.2,1.3-0.3c0.7-0.1,1.5-0.2,2.2-0.2
			c0.7,0,1.4-0.1,2.1-0.2c0.5-1.2,1.1-2.4,1.6-3.5c0.5-1.2,1.2-2.3,1.8-3.3V1.2c0.2-0.1,0.4-0.2,0.6-0.1c0.2,0.1,0.5,0.1,0.8,0
			c0.5,0.2,1,0.5,1.5,0.8c0.4,0.4,0.7,0.8,0.8,1.4c0,0.1,0,0.1,0.1,0.1c0,0,0.1,0,0.1,0c0,0.1,0,0.3,0,0.5c0,0.2,0,0.3-0.1,0.4
			C71,5,70.9,5.5,70.6,6c-0.3,0.4-0.4,0.9-0.5,1.3c-0.1,0-0.1,0.1-0.1,0.3c0,0.1-0.1,0.2-0.1,0.3C70.2,8,70.3,8,70.4,8L70.4,8z
			 M60.1,37.8l0.1,0.1L60.1,37.8z M62.3,30.9c0-0.1,0-0.2,0.1-0.2c0,0-0.1,0.1,0,0.1C62.5,30.9,62.4,30.9,62.3,30.9z M62.4,28.7
			c0.1,0,0.1,0,0.1,0c0,0,0,0,0.1,0c0,0-0.1-0.1,0-0.1c0,0,0-0.1-0.1-0.1C62.5,28.6,62.5,28.7,62.4,28.7z M62.6,29.1v-0.1V29.1
			L62.6,29.1z M63.7,23.8c0-0.1,0-0.2,0-0.2c0,0,0-0.1,0-0.1c-0.1,0-0.1,0-0.1,0.1C63.7,23.8,63.7,23.8,63.7,23.8z M63.9,40.7
			c0.1,0,0.2,0,0.2-0.1C64,40.6,63.9,40.7,63.9,40.7z M67.8,39.8c0-0.1,0-0.1-0.1,0v0.1C67.8,39.9,67.8,39.9,67.8,39.8z M67.9,39.8
			c0.1,0,0.2,0,0.2,0c0,0,0.1,0,0.1,0c0-0.1,0.1-0.1,0-0.1c0,0,0,0,0-0.1c0,0-0.1,0.1-0.2,0.1C67.8,39.7,67.8,39.7,67.9,39.8z
			 M68.2,11.4C68.3,11.5,68.3,11.5,68.2,11.4C68.3,11.3,68.3,11.3,68.2,11.4z M68.2,39.5c0,0,0.1,0,0.1-0.1
			C68.3,39.4,68.2,39.4,68.2,39.5z M68.3,11.4c0,0,0.1,0.1,0.2,0c0.1,0,0.1-0.1,0-0.1c0,0,0,0-0.1,0C68.4,11.3,68.4,11.3,68.3,11.4z
			 M68.5,10.8c0.3,0.1,0.5,0.1,0.7-0.1c0.1,0,0.2,0,0.3,0c0.1,0,0.1,0,0.1-0.1c-0.2-0.1-0.5-0.1-0.6,0
			C68.8,10.7,68.6,10.7,68.5,10.8z M68.5,39.3c0.1-0.1,0.1-0.1-0.1-0.1C68.5,39.3,68.5,39.3,68.5,39.3z M68.6,39.2
			c0.1,0.1,0.2,0.1,0.3,0c0.1-0.1,0.1-0.2-0.1-0.2c0,0.1,0,0.1,0,0.1C68.7,39.1,68.6,39.1,68.6,39.2z M68.6,39.5
			C68.6,39.6,68.6,39.6,68.6,39.5C68.7,39.4,68.6,39.4,68.6,39.5z M68.7,11.7c0.1,0,0.2,0,0.3,0c0.1,0,0.2,0,0.2-0.1
			c-0.1,0-0.2,0.1-0.3,0.1C68.9,11.6,68.8,11.7,68.7,11.7z M68.7,11.4c0.2,0,0.3,0,0.4-0.1C68.9,11.3,68.7,11.3,68.7,11.4z
			 M68.9,9.9C68.8,9.8,68.8,9.8,68.9,9.9C68.9,9.9,68.9,9.9,68.9,9.9C69,9.9,69,9.9,68.9,9.9C68.9,9.8,68.9,9.8,68.9,9.9z
			 M68.9,39.2L68.9,39.2L68.9,39.2L68.9,39.2L68.9,39.2z M69.9,8.7c0,0-0.1,0-0.1,0.1c0,0,0,0.1,0,0.1c0,0,0.1-0.1,0.1,0
			C69.9,8.8,69.9,8.8,69.9,8.7c0.3,0.1,0.8,0,1.3-0.1c0,0,0,0.1,0,0.1c0,0,0,0,0,0.1c0.1,0,0.1,0,0.1-0.1c0-0.1,0-0.1,0.1,0
			c0,0,0,0.1,0,0.1c0,0,0,0,0,0.1c0.1,0,0.2,0,0.3-0.1c0.1,0,0.1,0,0.2,0.1c-0.3,0.1-0.7,0.1-1.1,0.1c-0.4,0-0.8,0-1.3,0.1
			c-0.1,0-0.1,0,0-0.1c-0.1,0.1-0.2,0.2-0.3,0.4c0,0.1-0.1,0.3-0.2,0.4c0.2,0,0.5,0,0.8,0c0.3,0,0.5-0.1,0.6-0.1
			c0,0.1-0.2,0.1-0.5,0.1c0,0.1,0,0.1-0.1,0.1c-0.1,0-0.1,0-0.1,0.1c0.1,0,0.2-0.1,0.3,0c0.1,0,0.2,0,0.3,0c0-0.1,0.1-0.2,0.2-0.3
			c0.1-0.1,0.2-0.1,0.3,0c-0.1,0-0.2,0.1-0.2,0.1c0,0-0.1,0-0.3,0c0.1,0.1,0.2,0.1,0.3,0.1c0.1,0,0.2,0,0.3,0c0,0,0-0.1,0-0.1
			c0,0,0-0.1,0-0.1c-0.1,0-0.1,0-0.1,0c0,0.1-0.1,0.1-0.1,0c0.1-0.1,0.4-0.1,0.7-0.1c0,0.1-0.1,0.1-0.1,0c0-0.1,0-0.1,0,0
			c0,0,0.1,0,0.1,0.1c0.1,0,0.2,0,0.2-0.1c0-0.1,0.1-0.1,0.1,0c0,0,0,0.1,0,0c0,0-0.1,0-0.1,0.1c0.1,0,0.1,0,0.1-0.1
			c0-0.1,0-0.1,0.1-0.1c0.1,0.1,0.2,0.1,0.4-0.1v0.1h0.2h0.1c0,0-0.1,0,0,0.1c0,0,0,0.1,0,0.1c-0.1,0.1-0.2,0.1-0.3,0
			c0,0,0.1,0,0.2,0c0.1,0,0.1,0,0.1-0.1h-0.3c0,0.1,0,0.1-0.1,0.1c-0.1,0-0.2,0-0.2,0.1c0.1,0.1,0.3,0.1,0.4,0c0.1,0,0.2,0.1,0.2,0
			c0,0,0.1,0,0.2,0c0.2-0.1,0.5-0.1,0.7-0.1c0.2,0,0.4,0,0.7-0.1c0.2,0,0.4,0.1,0.7,0.1c0.3,0,0.5,0,0.7-0.1c-0.2,0-0.3,0-0.4-0.1
			c0.1,0,0.1,0,0.1-0.1c0,0,0-0.1-0.1-0.1h0.3H75c0,0.1,0.1,0.1,0.2,0.1c0.1,0,0.2,0,0.3,0c0.1-0.1,0.3-0.2,0.4-0.1
			c0.1,0.1,0.3,0.1,0.6,0c0.1-0.1,0.2-0.1,0.2-0.1h0.1l0.1,0.1c0,0.1,0.1,0.1,0.2,0.1c0.1,0,0.2-0.1,0.1-0.2c-0.1,0-0.1,0-0.1,0
			c0,0,0,0-0.1,0c0,0,0.1-0.1,0-0.1c0,0,0-0.1,0-0.1c-0.1,0-0.2,0-0.1-0.1c0.1,0,0.3,0,0.6-0.1c0.2,0,0.4,0,0.6,0.1
			c0.2,0,0.4,0.1,0.6,0c0.1,0,0.3-0.1,0.6-0.2c-0.2,0-0.4,0-0.7-0.1c0,0,0,0,0-0.1c-0.1,0-0.3,0-0.4,0c-0.1,0-0.2,0-0.3-0.2
			c0,0,0.1,0,0.1,0c0,0,0,0,0.1,0c0,0,0.1,0.1,0.2,0.1c0.1,0,0.1,0,0.1-0.1c0.1,0,0.1,0,0.1,0.1c0.2,0,0.5-0.1,0.7-0.1
			c0.2,0,0.4,0,0.6-0.1c0,0-0.2-0.1-0.4-0.1c0,0,0.1,0,0.1-0.1c0,0-0.1,0-0.1,0.1c0,0,0,0-0.1,0c0-0.1,0-0.1,0-0.1
			c-0.1,0-0.1,0,0-0.1c-0.1,0.2-0.3,0.2-0.5,0.1c0,0,0-0.1,0.1-0.1c0,0,0.1,0,0.1-0.1c-0.1,0-0.2,0-0.2,0.1c0,0-0.1,0.1-0.2,0.1
			c-0.1,0-0.3,0-0.6,0c-0.3,0-0.5,0-0.6-0.1c0.1,0,0.2-0.1,0.3,0c0.1,0,0.1,0,0.1-0.1h-2.5c-0.1,0-0.1,0,0,0c0,0,0,0-0.1,0
			c0,0,0,0.1,0,0.1c-0.8,0-1.7,0-2.7,0c-1,0-1.8,0.1-2.4,0.2c0,0,0,0.1,0,0.1c0,0,0,0,0,0.1h-0.1c0,0.1,0,0.1,0,0.1
			c0,0-0.1,0-0.1,0.1c0.1,0,0.1-0.1,0.1,0c0,0,0,0,0.1,0c0,0,0-0.1,0.1-0.1C69.9,8.6,69.9,8.6,69.9,8.7z M69.3,11.2
			C69.2,11.2,69.2,11.2,69.3,11.2C69.2,11.3,69.3,11.3,69.3,11.2z M69.3,12c0.1,0,0.2-0.1,0.2-0.1c0,0,0.1,0,0.2-0.1
			C69.5,11.9,69.3,11.9,69.3,12z M69.3,38.8c0.2,0,0.3-0.1,0.1-0.2C69.4,38.6,69.4,38.7,69.3,38.8z M69.3,11.3c-0.1,0.1,0,0.1,0,0.1
			C69.4,11.4,69.4,11.3,69.3,11.3z M70,9.3c-0.1,0.1-0.1,0.1-0.1,0.1c0,0-0.1,0-0.1,0.1c-0.1,0-0.2-0.1-0.4-0.1V9.3
			c0.1,0,0.3-0.1,0.4,0C69.8,9.3,69.9,9.3,70,9.3z M69.6,11.8C69.6,11.7,69.5,11.7,69.6,11.8C69.5,11.8,69.6,11.8,69.6,11.8z
			 M69.6,9.8C69.6,9.7,69.6,9.7,69.6,9.8C69.6,9.9,69.6,9.9,69.6,9.8z M69.6,38.7c0,0,0-0.1,0-0.1V38.7z M69.6,38.9
			C69.6,39,69.6,39,69.6,38.9C69.6,38.8,69.6,38.8,69.6,38.9z M69.6,10.7L69.6,10.7L69.6,10.7L69.6,10.7L69.6,10.7z M69.6,11.4
			c0.1,0,0.1,0,0.1-0.1C69.7,11.3,69.6,11.3,69.6,11.4z M69.9,8.4C69.8,8.4,69.8,8.4,69.9,8.4C70,8.4,70,8.4,69.9,8.4z M69.9,12
			L69.9,12C69.8,12,69.9,12,69.9,12z M69.9,11.6c0.1,0,0.1,0,0-0.1C69.8,11.5,69.8,11.6,69.9,11.6z M69.9,11.4
			C69.9,11.5,69.9,11.5,69.9,11.4C69.9,11.3,69.9,11.3,69.9,11.4z M69.9,11.1c0.1,0,0.2,0,0.3,0c0.1,0,0.2,0,0.3-0.1
			c-0.1,0-0.1,0-0.1-0.1c0,0,0.1,0,0.2,0c0.1,0,0.1-0.1,0-0.2C70.3,10.9,70.1,11,69.9,11.1z M70,8.3C70.1,8.2,70.1,8.2,70,8.3
			C70.1,8.4,70.1,8.4,70,8.3z M70,11.5c0.1,0,0.1-0.1,0.1-0.2C70.1,11.4,70,11.5,70,11.5z M70.1,10.8C70,10.9,70,10.9,70.1,10.8
			C70.2,10.7,70.2,10.7,70.1,10.8z M70.2,10.7L70.2,10.7C70.3,10.6,70.2,10.6,70.2,10.7L70.2,10.7z M70.2,11.6c0.2,0,0.3,0,0.3-0.1
			C70.2,11.4,70.2,11.5,70.2,11.6z M70.3,10.7c0,0,0.2,0,0.4-0.1C70.6,10.5,70.4,10.5,70.3,10.7z M70.4,8.6
			C70.5,8.6,70.6,8.6,70.4,8.6C70.4,8.7,70.4,8.7,70.4,8.6z M70.4,11.4c0,0,0,0.1,0.1,0.1c0.1,0,0.1,0,0.1-0.1
			C70.5,11.3,70.4,11.3,70.4,11.4z M70.5,38.2c0,0.1,0,0.2-0.1,0.2v-0.1L70.5,38.2L70.5,38.2z M70.7,10.9c0,0,0.1,0,0.1-0.1
			c0-0.1,0-0.1-0.1,0V10.9z M70.7,9.3c0,0,0.1-0.1,0.1-0.1C70.9,9.3,70.9,9.3,70.7,9.3c0.4,0.1,0.6,0,0.7,0c0,0.1-0.1,0.2-0.3,0.1
			c-0.1,0-0.3,0-0.4,0C70.8,9.4,70.8,9.4,70.7,9.3C70.9,9.3,70.8,9.3,70.7,9.3z M70.7,11.4H71c0-0.1,0.1-0.1,0.1,0
			c0,0.1,0.1,0.1,0.1,0v-0.2h-0.1c0,0.1-0.1,0.2-0.2,0.2c-0.1,0-0.1,0-0.2-0.1V11.4z M70.8,11.1c0.1,0,0.1,0,0.1-0.1L70.8,11.1
			L70.8,11.1z M71,10.9c0,0,0.1,0,0.1,0c0,0,0.1,0,0.1,0c0,0,0-0.1,0-0.1c0,0.1-0.1,0.1-0.2,0.1C70.9,10.8,70.9,10.8,71,10.9z
			 M71.1,9.7C71.2,9.8,71.2,9.8,71.1,9.7C71.2,9.6,71.2,9.6,71.1,9.7z M71.2,37.6c0-0.1,0-0.1-0.1,0C71.2,37.7,71.2,37.7,71.2,37.6z
			 M71.6,10.6c-0.1,0.1-0.2,0.2-0.4,0.1v0.1c0.1-0.1,0.2-0.1,0.2,0c0,0.1,0.1,0.1,0.2,0.1c0.1-0.1,0.1-0.1,0.1-0.1h0.1
			c0,0.1,0,0.1,0,0.1c0,0,0.1,0,0.1,0c0,0,0.1,0,0.1-0.1v-0.1H72h-0.1c0-0.1,0.1-0.1,0.2-0.1c0.1,0,0.1,0,0-0.1c0.1,0,0.2,0,0.3,0
			c0.1,0,0.2,0,0.3,0c0-0.1,0-0.1,0-0.1c-0.1,0-0.1,0-0.1-0.1c0.1,0,0.1,0,0.1-0.1c-0.2,0-0.4,0.1-0.6,0.2
			C72,10.7,71.8,10.7,71.6,10.6z M71.3,11.6c0.2,0,0.4-0.1,0.5-0.1c0.1,0,0.2,0,0.3-0.1h-0.4c0,0.1-0.1,0.1-0.1,0.1
			C71.3,11.5,71.3,11.5,71.3,11.6z M71.3,11.2C71.4,11.2,71.5,11.2,71.3,11.2L71.3,11.2L71.3,11.2z M71.4,11.1L71.4,11.1L71.4,11.1z
			 M71.5,9.7L71.5,9.7L71.5,9.7h0.1V9.7L71.5,9.7C71.6,9.7,71.5,9.7,71.5,9.7z M71.5,10L71.5,10L71.5,10L71.5,10L71.5,10z
			 M71.6,10.6C71.6,10.6,71.6,10.6,71.6,10.6c0.1,0,0.1,0,0.1-0.1C71.6,10.5,71.5,10.5,71.6,10.6C71.5,10.6,71.5,10.6,71.6,10.6z
			 M71.6,11.8C71.7,11.9,71.7,11.9,71.6,11.8C71.7,11.7,71.7,11.7,71.6,11.8z M71.8,10.8C71.8,10.9,71.8,10.9,71.8,10.8
			C71.8,10.7,71.8,10.7,71.8,10.8z M71.9,11.8L71.9,11.8L71.9,11.8L71.9,11.8c0,0-0.1,0-0.1-0.1v0.1C71.9,11.9,71.9,11.8,71.9,11.8z
			 M72,11.3C71.9,11.3,71.9,11.3,72,11.3C72,11.4,72,11.3,72,11.3z M72.8,8.7c0.2,0,0.4,0,0.5,0c-0.2,0.1-0.5,0.1-0.6,0.1
			c-0.2,0-0.4,0-0.6,0c0-0.1,0.1-0.1,0.2-0.1c0.1,0,0.1,0,0.2-0.1C72.4,8.7,72.5,8.7,72.8,8.7z M72.1,10.1L72.1,10.1
			c0-0.1,0-0.1-0.1-0.1C72.1,10,72.1,10.1,72.1,10.1z M72.1,11.4L72.1,11.4L72.1,11.4z M72.1,11.6C72.1,11.5,72.1,11.5,72.1,11.6
			C72.1,11.7,72.1,11.7,72.1,11.6z M72.1,11.7C72.1,11.8,72.1,11.8,72.1,11.7C72.1,11.6,72.1,11.6,72.1,11.7z M73.3,10.5L73.3,10.5
			c0,0.1,0,0.1-0.1,0.1c-0.1,0-0.3,0.1-0.4,0.1c-0.1,0-0.3,0.1-0.5,0.1c0.1,0,0.1,0,0.1,0.1c-0.1,0-0.2,0.1-0.3,0
			c-0.1,0-0.1,0-0.1,0.1h0.2c0,0,0-0.1,0.2-0.1c0.1-0.1,0.3-0.2,0.5-0.2c0.2,0,0.4,0,0.6,0c0-0.1,0.1-0.1,0.2-0.1
			c0.1,0,0.1,0,0.2-0.1c-0.2,0-0.3,0-0.3-0.1c0.2,0,0.5,0,1-0.1c-0.1,0-0.2,0-0.3,0c-0.1,0-0.2,0-0.3-0.1c0,0-0.1,0-0.1,0
			c0,0-0.1,0-0.2,0c0,0,0-0.1,0.1-0.1c0,0,0,0,0-0.1c-0.1,0-0.2,0.1-0.3,0.2C73.6,10.6,73.5,10.6,73.3,10.5z M72.1,11.5
			c0.1,0.1,0.1,0.1,0.1,0C72.2,11.5,72.2,11.5,72.1,11.5z M72.1,36.8C72.2,36.9,72.2,36.9,72.1,36.8C72.2,36.7,72.2,36.7,72.1,36.8z
			 M72.8,9.6c0,0-0.1,0.1-0.3,0.1C72.5,9.6,72.6,9.6,72.8,9.6z M72.5,11.5c0.1,0,0.2,0,0.1-0.1C72.6,11.4,72.6,11.5,72.5,11.5z
			 M72.7,9.4L72.7,9.4L72.7,9.4z M72.7,11.1L72.7,11.1l-0.1,0.1C72.7,11.2,72.7,11.2,72.7,11.1z M72.7,36.8c0,0.1,0,0.1-0.1,0.1
			c0,0,0-0.1,0-0.1c0,0,0-0.1,0-0.2C72.7,36.7,72.7,36.8,72.7,36.8z M72.7,10C72.8,10.1,72.8,10.1,72.7,10
			C72.8,9.9,72.8,9.9,72.7,10z M72.7,10.6L72.7,10.6L72.7,10.6L72.7,10.6L72.7,10.6z M72.7,11.4L72.7,11.4l0.1-0.1
			C72.8,11.3,72.8,11.3,72.7,11.4C72.7,11.3,72.7,11.3,72.7,11.4z M72.8,9.6c0.1-0.1,0.1-0.1,0.1-0.1L72.8,9.6L72.8,9.6z M73,11.2
			c-0.1,0.1-0.1,0.1,0,0.1C73.1,11.3,73.1,11.3,73,11.2z M73,35.8C73,35.7,73,35.7,73,35.8L73,35.8L73,35.8z M73,8L73,8L73,8L73,8
			L73,8z M73.1,9.4L73.1,9.4L73.1,9.4z M73.3,11.2c0-0.1-0.1-0.1-0.1,0C73.3,11.3,73.3,11.2,73.3,11.2z M73.2,35.7
			C73.2,35.7,73.2,35.7,73.2,35.7C73.2,35.8,73.2,35.7,73.2,35.7z M73.4,11.2c0,0.1,0,0.1-0.1,0.1c-0.1,0-0.1,0,0,0.1
			c0.1,0,0.2-0.1,0.3-0.1c0.1,0,0.2,0,0.3,0c0,0,0-0.1,0.1-0.1c0,0,0.1,0,0.1-0.1c-0.1,0-0.2,0-0.3,0.1
			C73.6,11.2,73.5,11.3,73.4,11.2z M73.2,8c0.1,0.1,0.1,0.1,0.1,0C73.3,7.9,73.3,7.9,73.2,8z M73.4,8.6C73.3,8.7,73.3,8.7,73.4,8.6
			c0,0,0,0,0,0.1h-0.1C73.2,8.7,73.3,8.6,73.4,8.6z M73.3,10.7l0.1-0.1c0,0,0.1,0.1,0.3,0.1h-0.1c0,0.1,0.1,0.1,0,0.1c0,0,0,0,0,0.1
			h-0.1C73.5,10.7,73.4,10.7,73.3,10.7z M73.5,7.9C73.4,7.9,73.4,7.9,73.5,7.9C73.4,8,73.5,7.9,73.5,7.9z M73.6,7.9
			c-0.1,0-0.1,0-0.1,0C73.5,8,73.5,8,73.6,7.9z M73.8,8.7c-0.1,0.1-0.3,0.2-0.4,0.1V8.6C73.6,8.7,73.7,8.7,73.8,8.7z M73.6,9.4
			C73.7,9.3,73.7,9.3,73.6,9.4C73.7,9.5,73.7,9.5,73.6,9.4z M73.7,9.6L73.7,9.6L73.7,9.6z M73.8,9.4C73.8,9.3,73.8,9.3,73.8,9.4
			C73.8,9.5,73.8,9.5,73.8,9.4z M73.8,8.7H74h0.1C74.1,8.8,74,8.8,73.8,8.7z M74,11.9L74,11.9c-0.1,0.1-0.1,0-0.1,0
			C73.9,11.8,73.9,11.8,74,11.9z M73.9,9.4C74,9.4,74,9.4,73.9,9.4C73.9,9.5,73.9,9.5,73.9,9.4z M74.1,10.7
			C74,10.6,74,10.6,74.1,10.7C74.1,10.7,74.1,10.7,74.1,10.7h0.1c0,0,0-0.1,0-0.1S74.1,10.6,74.1,10.7z M74.1,11.2
			c0,0.1,0.1,0.1,0.1,0c0-0.1,0.1-0.1,0.1,0C74.3,11.2,74.2,11.2,74.1,11.2z M74.1,10.9c0.1,0,0.1,0,0.1-0.1c0,0,0,0.1-0.1,0
			C74.2,10.8,74.1,10.8,74.1,10.9z M74.2,11.5C74.2,11.5,74.2,11.5,74.2,11.5c0.1,0.1,0,0.1,0,0.1C74.2,11.6,74.1,11.6,74.2,11.5
			C74.2,11.5,74.2,11.6,74.2,11.5z M74.3,8.6C74.4,8.7,74.4,8.7,74.3,8.6c0,0.1-0.1,0.1-0.1,0.1C74.2,8.7,74.2,8.7,74.3,8.6
			C74.3,8.7,74.3,8.7,74.3,8.6z M74.4,11.4c0.1,0,0.1,0,0.1,0.1c0,0-0.1,0.1-0.1,0.1V11.4l-0.1,0.1C74.2,11.5,74.2,11.4,74.4,11.4
			C74.4,11.5,74.4,11.5,74.4,11.4z M74.3,9.6L74.3,9.6L74.3,9.6C74.4,9.6,74.3,9.6,74.3,9.6z M74.8,10.9L74.8,10.9
			c0,0.1,0.1,0.1,0.2,0c0.1-0.1,0.2-0.1,0.3-0.1c0,0,0.1,0.1,0.4,0.1c0-0.1,0-0.1,0-0.1c0,0,0,0,0.1,0c0,0,0-0.1,0-0.1
			c0,0,0,0,0-0.1c-0.1,0-0.3,0.1-0.4,0.2c-0.1-0.1-0.1-0.2-0.3-0.1C75,10.9,74.9,10.9,74.8,10.9c0,0,0-0.1,0-0.1c0,0,0-0.1,0-0.1
			c-0.1-0.1-0.3,0-0.6,0.2H74.8z M74.4,8.7C74.4,8.7,74.4,8.8,74.4,8.7L74.4,8.7z M74.4,9.5c0,0,0.2-0.1,0.4-0.1
			C74.7,9.5,74.6,9.5,74.4,9.5z M74.4,11.1C74.4,11.2,74.4,11.2,74.4,11.1C74.4,11,74.4,11,74.4,11.1L74.4,11.1z M74.5,11.1
			c0.1,0,0.2,0,0.2,0C74.7,11.1,74.7,11.1,74.5,11.1L74.5,11.1z M74.6,8.6c0,0.1-0.1,0.1-0.1,0.1C74.5,8.6,74.6,8.6,74.6,8.6z
			 M74.6,11.3c0,0,0.1,0,0.2-0.1C74.7,11.1,74.7,11.2,74.6,11.3z M74.6,34.8C74.7,34.7,74.7,34.7,74.6,34.8
			C74.7,34.9,74.7,34.9,74.6,34.8z M74.7,10.2C74.8,10.3,74.8,10.3,74.7,10.2C74.8,10.1,74.8,10.1,74.7,10.2z M74.9,10.4
			c0,0.1,0,0.1,0,0.1c0.1,0.1,0.1,0.1,0.1,0c0-0.1,0-0.1,0.1-0.1c0.1,0.1,0.2,0.1,0.4,0.1c0.2,0,0.3,0,0.4,0.1
			c0.1-0.1,0.2-0.2,0.2-0.1c-0.1,0-0.1,0-0.1,0c0,0,0-0.1-0.1-0.1C75.7,10.5,75.3,10.5,74.9,10.4z M74.9,34.6
			C74.9,34.7,74.9,34.7,74.9,34.6C74.9,34.5,74.9,34.5,74.9,34.6z M74.9,10.7h0.2c0-0.1,0-0.1-0.1-0.1
			C75.1,10.6,75.1,10.7,74.9,10.7C75,10.6,74.9,10.6,74.9,10.7z M75,8.6C75.1,8.6,75.1,8.6,75,8.6C75,8.7,75,8.7,75,8.6z M75.1,11.2
			L75.1,11.2c0-0.2,0-0.2-0.1-0.1C75,11.2,75,11.2,75.1,11.2z M75.2,11.1c0.1,0,0.1,0,0.1-0.1h-0.1V11.1z M75.5,8.7
			C75.5,8.8,75.4,8.8,75.5,8.7C75.4,8.6,75.5,8.6,75.5,8.7z M75.4,9.7c0.1,0,0.2,0,0.4,0c0.1,0,0.3,0,0.4-0.1c0,0-0.1,0-0.2-0.1
			c0,0.1,0,0.1-0.1,0.1c0,0-0.1-0.1,0-0.1c0,0,0,0-0.1,0c0,0.1,0,0.1-0.1,0.1C75.4,9.6,75.4,9.6,75.4,9.7z M75.4,11.1
			c0.1,0,0.1,0,0.1-0.1C75.4,11,75.4,11,75.4,11.1z M75.6,7.8l-0.1,0.1C75.6,7.9,75.6,7.9,75.6,7.8z M75.8,34c0,0,0,0.1-0.1,0.1
			C75.6,34.1,75.6,34.1,75.8,34C75.7,34,75.7,34,75.8,34C75.7,33.9,75.8,33.9,75.8,34z M75.7,7.8c0,0.1,0,0.1,0,0.1
			C75.8,7.9,75.8,7.9,75.7,7.8z M75.7,33.6C75.7,33.7,75.8,33.7,75.7,33.6C75.8,33.5,75.7,33.5,75.7,33.6z M75.8,11.4
			c0,0,0.1,0,0.1,0C76,11.5,76,11.5,75.8,11.4c0.1,0,0,0-0.1,0.1c0,0,0,0,0,0C75.9,11.5,75.9,11.5,75.8,11.4z M76.1,9.2
			c0,0-0.1,0.1-0.2,0.1c0,0,0-0.1,0.1,0C76,9.3,76,9.3,76.1,9.2z M75.8,11.1C75.9,11.2,75.9,11.2,75.8,11.1
			C75.9,11,75.9,11,75.8,11.1z M75.9,7.9L75.9,7.9L75.9,7.9L75.9,7.9L75.9,7.9z M75.9,8.6C76,8.6,76,8.6,75.9,8.6
			C76,8.7,76,8.7,76.1,8.7c0,0,0,0.1-0.1,0.1C75.9,8.8,75.9,8.7,75.9,8.6z M76.1,8.3H76l0.1-0.1V8.3z M76,11c0,0,0.1,0,0.1-0.1
			c0,0,0-0.1-0.1-0.1C76.1,10.9,76,10.9,76,11C76,10.9,76,10.9,76,11z M76.1,11.5c0,0.1-0.1,0.1-0.1,0
			C76.1,11.4,76.1,11.4,76.1,11.5z M76.5,9.2c-0.1,0-0.2,0-0.3,0.1c0,0,0-0.1-0.1-0.1C76.3,9,76.5,9,76.8,9.1
			C76.7,9.2,76.6,9.2,76.5,9.2z M76.2,9.7L76.2,9.7c0.1,0,0.1-0.1,0-0.1C76.2,9.6,76.1,9.6,76.2,9.7C76.2,9.7,76.2,9.7,76.2,9.7z
			 M76.1,10.7c0,0.1,0.1,0.1,0.1,0C76.3,10.6,76.2,10.6,76.1,10.7z M76.5,11.4c0.1,0.1,0.1,0.1,0,0.1c-0.1,0-0.2,0-0.3,0
			c0-0.1,0.1-0.1,0.2-0.1C76.4,11.5,76.5,11.5,76.5,11.4z M76.5,8.7c0,0.1,0,0.1-0.1,0.1c-0.1,0-0.1,0-0.2,0
			C76.2,8.7,76.3,8.7,76.5,8.7z M76.2,10.5c0.1,0.1,0.3,0.2,0.4,0.1c0.1,0,0.2-0.1,0.3-0.1c-0.1-0.1-0.2-0.2-0.4-0.1
			C76.4,10.6,76.3,10.6,76.2,10.5z M76.3,10.9C76.3,10.9,76.4,10.8,76.3,10.9c0.1-0.1,0.1-0.1,0.1-0.1c0,0-0.1,0-0.1,0
			C76.2,10.9,76.2,10.9,76.3,10.9z M76.3,9.4C76.4,9.4,76.4,9.4,76.3,9.4C76.2,9.4,76.2,9.4,76.3,9.4z M76.3,7.9h0.3
			c0,0,0-0.1-0.1-0.1C76.4,7.8,76.4,7.8,76.3,7.9z M76.4,9.7c0.1,0,0.1,0,0.1,0C76.6,9.5,76.5,9.6,76.4,9.7z M76.5,32.7
			C76.5,32.6,76.5,32.6,76.5,32.7L76.5,32.7C76.5,32.7,76.5,32.7,76.5,32.7z M76.6,9.8c0,0,0.1-0.1,0.2,0c0.1,0,0.1,0,0.2-0.1
			c0,0-0.1-0.1-0.3,0C76.5,9.6,76.5,9.7,76.6,9.8z M76.6,8.6c0.1,0,0.2,0.1,0.2,0c0,0,0.1,0,0.1,0c0,0-0.1,0.1-0.2,0.1
			C76.6,8.8,76.6,8.7,76.6,8.6z M76.6,10.7C76.6,10.8,76.6,10.8,76.6,10.7C76.8,10.7,76.7,10.6,76.6,10.7z M76.6,11.5L76.6,11.5
			C76.7,11.5,76.7,11.5,76.6,11.5z M76.8,9.2C76.8,9.2,76.9,9.2,76.8,9.2C76.9,9.3,76.8,9.3,76.8,9.2L76.8,9.2L76.8,9.2z M76.8,9.6
			L76.8,9.6L76.8,9.6L76.8,9.6L76.8,9.6z M76.9,11.4L76.9,11.4L76.9,11.4L76.9,11.4L76.9,11.4z M77.1,7.9C77,7.9,77,7.9,77.1,7.9
			C77,7.8,77,7.8,76.9,7.8C76.9,7.9,77,8,77.1,7.9C77.1,8,77.1,7.9,77.1,7.9z M77,8.7L77,8.7L77,8.7z M77,10.5
			c0.1,0.1,0.2,0.1,0.3,0.1c0.1,0,0.1-0.1,0-0.2c0,0.1-0.1,0.1-0.1,0.1C77.1,10.4,77.1,10.4,77,10.5z M77.1,8.8
			C77.2,8.7,77.2,8.7,77.1,8.8C77,8.9,77,8.9,77.1,8.8z M77.2,32c0.1-0.2,0.1-0.3,0.1-0.4c0,0-0.1,0-0.1,0.1
			C77.2,31.8,77.2,31.9,77.2,32z M77.2,7.9h0.1C77.4,7.8,77.3,7.8,77.2,7.9z M77.2,8.8L77.2,8.8L77.2,8.8z M77.6,8.5
			C77.6,8.6,77.6,8.6,77.6,8.5c-0.1,0-0.1,0-0.1,0.1l0.1,0.1c0,0-0.1,0.1-0.3,0.1c0-0.1,0-0.1,0.1-0.1c0,0,0,0,0-0.1
			C77.5,8.6,77.5,8.6,77.6,8.5C77.5,8.6,77.6,8.5,77.6,8.5z M77.3,9.4L77.3,9.4L77.3,9.4L77.3,9.4L77.3,9.4z M77.4,10.6
			c0.1,0,0.1,0,0.1-0.1L77.4,10.6L77.4,10.6z M77.5,31.6L77.5,31.6L77.5,31.6L77.5,31.6L77.5,31.6z M77.6,9.2h0.1c0,0,0-0.1-0.1-0.1
			C77.6,9.1,77.6,9.1,77.6,9.2z M77.7,10.6c0.1,0,0.2,0,0.3,0c0.1-0.1,0.3-0.1,0.5-0.1c0.2,0,0.4,0,0.4-0.1c-0.2,0-0.4,0-0.6,0
			c-0.2,0-0.4,0-0.6,0C77.6,10.5,77.6,10.6,77.7,10.6z M77.7,8.1C77.7,8.2,77.7,8.2,77.7,8.1C77.9,8.1,77.8,8.1,77.7,8.1z
			 M77.9,11.1C77.9,11.1,77.9,11.1,77.9,11.1l-0.1,0v-0.1L77.9,11.1C77.9,11.1,77.9,11.1,77.9,11.1z M77.9,7.9L77.9,7.9
			C77.8,8,77.9,8,77.9,7.9C78,7.9,78,7.9,77.9,7.9z M78,30.9c0.1,0,0.1,0.1,0.1,0.1c0,0-0.1,0.1-0.1,0.1c0,0,0-0.1,0-0.1
			C78,31,78,30.9,78,30.9z M78.2,9.8c0-0.1-0.1-0.1-0.1,0C78.2,9.8,78.3,9.8,78.2,9.8z M78.3,9.5C78.3,9.6,78.3,9.6,78.3,9.5
			C78.3,9.4,78.3,9.4,78.3,9.5z M78.3,8C78.4,8,78.4,7.9,78.3,8C78.4,7.9,78.3,7.9,78.3,8z M78.5,11.1L78.5,11.1
			C78.5,11,78.5,11,78.5,11.1z M78.6,8c0,0,0.1,0.1,0.3,0.1c0.1,0,0.1,0,0-0.1c0,0-0.1,0.1-0.1,0C78.7,7.9,78.6,7.9,78.6,8z
			 M78.8,30.4c0,0.1,0,0.2-0.1,0.2C78.6,30.6,78.7,30.5,78.8,30.4z M78.8,8.3L78.8,8.3c0-0.1,0-0.1-0.1-0.1
			C78.8,8.2,78.8,8.3,78.8,8.3z M78.8,30.4L78.8,30.4c0-0.2,0-0.2,0-0.1c0,0,0.1,0.1,0.1,0.1c0.1-0.1,0.1-0.2,0.1-0.3
			c0-0.1,0-0.2,0.1-0.2c0,0.1-0.1,0.3-0.1,0.4C79.1,30.3,79,30.4,78.8,30.4z M79.4,8c-0.1,0-0.1,0-0.1,0c0,0-0.1,0-0.1,0
			c0,0.1,0,0.1,0.1,0.1S79.4,8.1,79.4,8z M79.4,29.5c0,0.1,0.1,0.1,0,0.1c0,0,0,0,0,0.1V29.5z M80.6,10.6
			C80.6,10.6,80.7,10.6,80.6,10.6C80.5,10.7,80.5,10.7,80.6,10.6z M80.7,10.6L80.7,10.6L80.7,10.6L80.7,10.6L80.7,10.6z M81,8.2
			L81,8.2L81,8.2L81,8.2L81,8.2z M81.1,27.7c0,0.1,0,0.1,0,0.1c0,0-0.1,0-0.1,0c0,0-0.1,0,0-0.1C81.1,27.8,81.1,27.7,81.1,27.7z
			 M81.2,27.4c0,0,0.1,0.1,0.1,0.2C81.3,27.5,81.3,27.4,81.2,27.4z M82.2,10.3C82.2,10.2,82.1,10.2,82.2,10.3
			C82.1,10.4,82.2,10.4,82.2,10.3z M83.1,10L83.1,10L83.1,10z M84.1,24L84.1,24L84.1,24L84.1,24L84.1,24z M84.2,10L84.2,10L84.2,10z
			 M84.3,10h0.1C84.5,10,84.4,10,84.3,10c0.1,0.1,0.1,0.1,0.1,0.1c0,0,0,0,0.1,0C84.5,10.1,84.5,10.1,84.3,10z M84.8,9.9
			C84.8,9.9,84.7,10,84.8,9.9L84.8,9.9z M85.5,21.2C85.5,21.2,85.6,21.2,85.5,21.2C85.5,21.2,85.5,21.2,85.5,21.2
			C85.6,21.2,85.6,21.2,85.5,21.2z M85.6,20.1c0.1,0,0.1,0,0-0.1V20.1z M85.7,20.5C85.8,20.5,85.8,20.5,85.7,20.5
			C85.7,20.6,85.7,20.6,85.7,20.5z M85.9,19.9c-0.1,0-0.1,0-0.1-0.1c0,0,0-0.1-0.1-0.1c0,0.1,0,0.2,0,0.2c0,0,0,0.1,0,0.1
			C85.9,20,85.9,20,85.9,19.9z M86,19.7C86.1,19.6,86.1,19.7,86,19.7C86,19.8,86,19.8,86,19.7z M86,20.1L86,20.1L86,20.1L86,20.1
			L86,20.1z"/>
		<path fill="#B3AB9C" d="M90.6,22.4L90.6,22.4c-0.1,0.1-0.1,0.1,0,0.1C90.6,22.5,90.6,22.5,90.6,22.4c0.1,0,0.1,0.1,0,0.1
			c-0.1,0-0.1,0.1-0.2,0.1c0,0.1,0,0.2,0,0.3c0,0.1-0.1,0.2-0.2,0.3c0,0.3-0.1,0.6-0.2,0.8c-0.1,0.2-0.3,0.4-0.5,0.6v0.3
			c-0.2,0.2-0.4,0.5-0.6,0.8c-0.1,0.3-0.3,0.6-0.5,0.8c0.1,0,0.2,0,0.2,0c0-0.1,0.1-0.1,0.2-0.1c0,0.2-0.1,0.3-0.3,0.3
			c-0.1,0-0.3,0.1-0.4,0.2c1-0.4,1.9-0.8,2.8-1.2C92,25.4,93,25,94,24.6c-0.2,0-0.5,0.1-0.7,0.2c-0.2,0.1-0.5,0.2-0.7,0.3l0.1-0.1
			c0.3-0.2,0.5-0.4,0.7-0.5c0,0,0.1,0,0.1,0.1c0,0,0,0.1,0.1,0.1c0,0,0.1-0.1,0-0.1c0,0,0-0.1,0-0.1c0.1,0.1,0.1,0.1,0.1-0.1
			c0,0.1,0.1,0.1,0.1,0.1c0,0,0.1-0.1,0.1-0.2c0,0.1,0.1,0.1,0.2,0c0.3-0.1,0.6-0.3,0.9-0.4c0.3-0.1,0.6-0.3,1-0.4c0,0,0-0.1-0.1,0
			c0,0,0,0,0-0.1c0.1,0,0.2,0,0.3-0.1c0.1-0.1,0.2-0.1,0.3-0.1l0.1,0.1c0.1,0,0.2-0.1,0.3-0.2c0.1-0.1,0.2-0.2,0.3-0.3
			c0.8-0.4,1.7-0.8,2.5-1.3c0.8-0.5,1.6-1,2.4-1.5c0,0,0.1,0.1,0,0.1c0,0-0.1,0-0.1,0c-0.1,0.1-0.1,0.1,0,0.1c0,0,0.1,0,0.1,0
			c-0.1,0.1-0.2,0.2-0.2,0.2c0,0,0,0,0.1,0.1c0,0,0,0.1-0.1,0.1c0,0-0.1,0-0.1,0.1c0,0,0,0.1,0,0c0,0,0,0,0,0
			c-0.1,0.1-0.2,0.2-0.2,0.2c0,0,0,0.1,0,0c0,0,0,0,0,0c-0.1,0.1-0.2,0.3-0.4,0.4c-0.2,0.1-0.3,0.2-0.3,0.4
			c-0.2,0.1-0.3,0.2-0.4,0.3c0.1-0.1,0.1,0,0.1,0.2c-0.1,0-0.2,0.1-0.2,0.2c0,0.1-0.1,0.1-0.2,0.1c0,0.1,0,0.1,0.1,0.1
			c0.1,0,0.1,0,0,0.1c-0.1,0-0.1,0-0.1-0.1c-0.1,0-0.2,0.1-0.1,0.2c-0.1,0.1-0.3,0.2-0.4,0.3c-0.1,0.1-0.3,0.2-0.4,0.3
			c0,0.1,0,0.1,0.1,0.1c-0.1,0.1-0.1,0.2-0.1,0.2c-0.3,0.1-0.5,0.3-0.7,0.6h-0.1c-0.3,0.4-0.7,0.7-1.1,1c-0.4,0.2-0.8,0.5-1.2,0.9
			c-0.2,0-0.4,0.1-0.6,0.2c-0.2,0.1-0.3,0.3-0.5,0.4c-0.1-0.1-0.3-0.1-0.5,0.1c-0.2,0.1-0.3,0.3-0.4,0.4L94,27.4
			c-0.1,0-0.1,0.1-0.1,0.1c0,0,0,0.1-0.1,0.1c-0.1-0.1-0.1-0.1-0.1,0c0,0.1,0,0.1-0.1,0.1c0,0,0-0.1,0.1-0.1c-0.2,0-0.2,0.1-0.1,0.2
			c0,0-0.1,0-0.1,0c0,0,0,0-0.1,0c0,0-0.1,0,0,0.1c0,0,0.1,0.1,0.1,0.1c-0.2,0-0.3,0.1-0.3,0.2c-0.1,0-0.2,0-0.2,0c0,0-0.1,0-0.1,0
			c0-0.1,0-0.1,0-0.1c0.1,0,0.1,0,0-0.1c-0.2,0.1-0.4,0.2-0.5,0.3c-0.1,0.1-0.3,0.2-0.6,0.2c0,0.2-0.2,0.3-0.4,0.4
			c0-0.1,0-0.2,0.1-0.2c0,0,0.1-0.1,0.1-0.2c-0.1-0.1-0.2-0.1-0.3,0.1c-0.1,0.2-0.1,0.3-0.2,0.4c-0.1-0.1-0.2-0.1-0.4,0
			c-0.2,0.1-0.3,0.2-0.4,0.3c-0.1,0-0.1,0-0.1-0.1c0,0,0-0.1,0-0.1c-0.1,0.2-0.2,0.3-0.4,0.3c0.1-0.2,0.2-0.4,0.4-0.4
			c0.2,0,0.4-0.2,0.5-0.4c-0.1,0-0.3,0.1-0.4,0.2c-0.1,0.1-0.3,0.2-0.4,0.3c0-0.1,0-0.1,0-0.1c0,0,0,0,0-0.1
			c-0.2,0.1-0.3,0.2-0.2,0.3c-0.2,0-0.4,0.1-0.5,0.2c-0.1,0.1-0.2,0.1-0.3,0L89,29.4v0.1h-0.1c0-0.1,0-0.2-0.1-0.2c0,0,0,0.1,0,0.1
			c0,0,0,0.1,0,0.1h-0.1c-0.2,0-0.5,0-0.7,0.2c-0.2,0.2-0.4,0.3-0.7,0.4v0.2c-0.1,0-0.1,0-0.1,0.1c-0.1-0.1-0.1-0.2-0.1-0.2
			c-0.1,0-0.1,0.1-0.1,0.2s0,0.2-0.1,0.3c0,0-0.1,0-0.1,0c0,0-0.1,0-0.1-0.1c-0.1,0.1-0.2,0.2-0.3,0.4c0,0.2-0.1,0.3-0.2,0.4
			c0,0,0.1,0,0.2-0.1c0,0.1,0,0.2-0.1,0.2c-0.1,0-0.1,0.1-0.1,0.1c0,0-0.1,0-0.1-0.1c-0.1,0.1-0.2,0.2-0.3,0.3
			c-0.1,0.1-0.2,0.2-0.1,0.3c-0.1,0.1-0.2,0.2-0.3,0.3c-0.1,0.1-0.2,0.2-0.2,0.4c0,0-0.1,0-0.1,0c0,0,0,0-0.1,0c0,0,0,0.1-0.1,0.2
			c0,0,0.1,0,0.1,0c0-0.1,0.1-0.1,0.1,0c-0.2,0.3-0.4,0.5-0.5,0.5c0,0,0-0.1,0-0.1c0,0,0.1-0.1,0.1-0.2c-0.1,0.1-0.2,0.2-0.3,0.3
			c-0.1,0.1-0.2,0.2-0.1,0.4c-0.1,0-0.1,0-0.1,0.1c0,0,0,0.1-0.1,0.1c0,0,0-0.1,0-0.1c0,0,0,0,0-0.1c-0.2,0.1-0.3,0.2-0.3,0.4
			c0.1,0,0.1,0,0.1-0.1c0-0.1,0-0.1,0.1-0.1c0,0.2-0.1,0.3-0.2,0.4c-0.1,0-0.3,0.1-0.4,0.2c0-0.1,0-0.1,0.1-0.1c0,0,0,0,0-0.1
			c-0.1,0-0.1,0.1-0.1,0.3c-0.3,0.2-0.6,0.5-0.9,0.7c-0.2,0.2-0.5,0.5-0.8,0.7c-0.1-0.1-0.3-0.1-0.3,0.1c-0.1,0.2-0.2,0.2-0.3,0
			c-0.2,0.2-0.3,0.3-0.4,0.4v-0.1c-0.1,0.1-0.2,0.2-0.3,0.2c-0.1,0-0.2,0-0.3,0c0,0-0.1,0-0.1,0.1c0,0-0.1,0-0.2,0.1
			c-0.1,0-0.1,0-0.1-0.1c-0.4,0.1-0.7,0.2-1.1,0.2c-0.3,0-0.7,0.1-1.1,0.1c-0.2,0-0.4-0.1-0.5-0.1c-0.1,0-0.3,0-0.6,0
			c-0.9-0.3-1.6-0.9-2.1-1.6c-0.5-0.7-0.9-1.6-1.1-2.5c-0.3-1.8-0.1-3.6,0.6-5.5c0.7-1.9,1.6-3.4,2.7-4.5c0.1,0,0.1,0,0.1,0
			c0,0,0-0.1,0.1-0.1c0.1-0.2,0.2-0.5,0.3-0.7c0.1-0.2,0.2-0.5,0.3-0.7c0.1-0.1,0.2-0.2,0.3-0.3c0.1-0.1,0.1-0.3,0.1-0.6
			c0,0,0.1,0,0.2-0.1c0-0.1,0-0.1-0.1,0c0,0.1,0,0.1,0,0c0.1-0.1,0.2-0.2,0.2-0.3c0-0.1,0.1-0.2,0.2-0.3c0,0,0-0.1-0.1-0.1
			c0,0,0.1-0.1,0.1-0.2c0-0.1,0.1-0.1,0.2-0.1c0.5-0.7,1-1.4,1.6-2c0.6-0.6,1.2-1.2,2-1.7c0,0,0.1,0,0.1-0.1c0.5-0.2,1-0.4,1.5-0.6
			c0.4,0.1,0.7,0.1,1,0c0.1,0,0.2,0.1,0.3,0.1c0.1,0,0.2,0,0.3,0.1c0,0,0-0.1,0.1-0.1c0.1,0,0.1,0,0.1,0.1c0.2-0.1,0.5-0.1,0.6-0.1
			c0.2,0,0.4,0,0.6-0.2c0.4,0,0.9,0.1,1.3,0.1c0.4,0,0.9,0.1,1.3,0.4c0,0.1,0,0.1-0.1,0.1c0,0-0.1,0-0.1,0.1c0,0,0.1,0,0.1,0
			c0-0.1,0.1-0.1,0.1,0c0,0.1,0,0.1,0,0.1c0,0,0,0,0,0.1c0,0,0.1,0,0.1,0c0,0,0.1,0,0.2,0c0-0.1,0-0.1-0.1-0.1c-0.1,0-0.1,0-0.1-0.1
			c0.3,0,0.4,0.1,0.4,0.4c0,0,0.1-0.1,0.1-0.1c0,0,0.1,0,0.1-0.1c0,0.1,0,0.3,0.1,0.3c0.1,0.1,0.2,0.2,0.3,0.3
			c-0.1,0.1-0.1,0.1-0.1,0c0-0.1-0.1-0.1-0.1-0.1c0,0-0.1,0,0,0.1c0,0,0,0.1,0,0.1l0.1,0.1c0,0,0,0.1,0,0c0,0,0,0,0,0
			c0,0,0.1,0.1,0.1,0.2c0,0.1,0.1,0.1,0.2,0.1v0.3c0.1,0,0.1-0.1,0.1-0.2c0-0.1-0.1-0.2-0.1-0.3h0.2V17c0.1,0.1,0.2,0.4,0.2,0.7
			h-0.1c0,0.1,0,0.2,0,0.2c0,0-0.1,0.1-0.1,0.1c0,0,0.1,0.1,0.1,0.1c0.1,0.4,0.1,0.8,0,1.1c-0.1,0.3-0.1,0.7,0,1.3
			c0.1,0,0.1,0,0.1-0.1c0-0.1,0-0.2,0.1-0.1v0.3h-0.1v0.2c0,0,0.1,0,0,0c0-0.1,0-0.1,0.1,0c0,0.1,0,0.2,0,0.3c0,0-0.1,0.1-0.1,0.1
			c0,0.2,0,0.5-0.1,0.7C90.7,21.9,90.6,22.2,90.6,22.4z M77.1,21.3c0,0,0-0.1,0.1-0.1L77.1,21.3L77.1,21.3z M78.6,34.6
			c0.7-0.4,1.4-0.9,1.9-1.5c0.5-0.6,1.1-1.2,1.5-1.8c-0.6,0.1-1.3,0.1-2,0.1c-0.7,0-1.4-0.2-2.1-0.5c0,0.6-0.1,1.3-0.1,2
			C77.9,33.5,78.1,34.1,78.6,34.6z M81,28.2c0.5,0.2,1.1,0.3,1.8,0.1c0.7-0.2,1.3-0.4,1.8-0.7c0.4-1,0.9-2.2,1.5-3.4
			c0.6-1.3,0.9-2.5,1-3.8c0-0.6,0-1.2-0.3-1.8c-0.1-0.1-0.2-0.2-0.4-0.3c-0.1-0.1-0.3-0.2-0.4-0.4c-0.1,0-0.2-0.1-0.3-0.1
			c-0.1,0-0.2-0.1-0.3-0.2h-0.3c-0.4,0.2-0.8,0.5-1.1,0.9c-0.3,0.3-0.6,0.7-0.9,1.1c0,0.1,0,0.2-0.1,0.2c0,0-0.1,0.1-0.1,0.2
			c-0.1,0-0.2,0-0.2,0.1c0,0-0.1,0.1-0.1,0.1c0,0.2-0.1,0.2-0.1,0.1c0,0,0,0.1,0,0.1c0,0,0,0,0,0.1c-0.2,0.3-0.4,0.6-0.6,1
			c-0.1,0.4-0.3,0.7-0.5,0.9c0,0,0,0.1,0.1,0.1c-0.3,0.4-0.5,0.8-0.7,1.3c-0.1,0.5-0.3,0.9-0.6,1.4c0.1,0.3,0.1,0.6-0.1,0.8
			c0,0.2,0,0.4-0.1,0.6c0.1,0.1,0.1,0.1,0.1,0c0-0.1,0-0.2,0.1-0.2c0.1,0,0.1,0.1,0.1,0.2c0,0.1-0.1,0.1-0.2,0.1c0,0.1,0,0.2,0,0.3
			c0,0.1,0,0.1,0.1,0c0-0.1,0.1-0.1,0.1,0c-0.1,0.1-0.2,0.2-0.2,0.3c0,0,0.1,0,0.1,0c0,0,0,0,0,0c0,0.4,0,0.7,0.1,0.7
			c0,0,0.1-0.1,0.1-0.2c0-0.1,0.1-0.1,0.1-0.2C80.9,27.9,80.9,28.1,81,28.2z M80.6,25.1L80.6,25.1L80.6,25.1L80.6,25.1L80.6,25.1
			L80.6,25.1L80.6,25.1z M80.9,25.7c0,0,0.1,0,0.1,0.1c0,0.1,0,0.1-0.1,0C80.8,25.8,80.9,25.8,80.9,25.7z M80.9,24.9
			c0-0.1,0-0.1,0.1-0.1c0,0,0,0.1,0,0.1C81,24.9,81,24.9,80.9,24.9L80.9,24.9z M81.7,15.7C81.7,15.6,81.7,15.6,81.7,15.7
			C81.7,15.8,81.7,15.8,81.7,15.7z M81.7,16.4c0.1,0,0.2,0,0.2-0.1C81.8,16.3,81.7,16.3,81.7,16.4z M82.2,15.7c-0.1,0-0.2,0-0.3,0.1
			C82,15.9,82.1,15.8,82.2,15.7z M82.2,15.6c0,0,0.1-0.1,0.2-0.1c0.1,0,0.1,0,0.1-0.1c0,0-0.1,0-0.2,0.1
			C82.1,15.5,82.1,15.6,82.2,15.6z M83,15.3C82.9,15.3,82.9,15.4,83,15.3C83,15.4,83,15.4,83,15.3c0.1,0,0.1,0,0.1-0.1
			C83,15.2,83,15.2,83,15.3z M83.1,15.6C83.1,15.6,83.1,15.5,83.1,15.6C83,15.5,83,15.5,83.1,15.6z M83.2,34.8
			C83.3,34.8,83.3,34.8,83.2,34.8C83.2,34.9,83.2,34.9,83.2,34.8z M83.4,15.3c0.2,0,0.3,0,0.3-0.1c0,0-0.1,0.1-0.1,0.1
			C83.5,15.3,83.5,15.3,83.4,15.3z M83.9,33.8L83.9,33.8h0.1v-0.1L83.9,33.8L83.9,33.8L83.9,33.8z M84.1,14.9
			C84.1,14.8,84.2,14.8,84.1,14.9C84.1,15,84.1,15,84.1,14.9z M85.8,31.9L85.8,31.9L85.8,31.9z M86.2,31.9L86.2,31.9
			c0.1,0.1,0,0.1,0,0.1c-0.1,0-0.1,0-0.1,0C86.1,32,86.2,32,86.2,31.9z M86.2,15.2L86.2,15.2L86.2,15.2L86.2,15.2L86.2,15.2z
			 M86.4,15.3h0.1c0.1,0,0.1,0,0.1-0.1C86.5,15.1,86.4,15.2,86.4,15.3z M86.6,24.4C86.5,24.5,86.6,24.5,86.6,24.4
			C86.7,24.4,86.7,24.4,86.6,24.4z M86.7,24.3C86.7,24.3,86.7,24.3,86.7,24.3c0.1-0.1,0-0.1,0-0.1V24.3z M86.7,30.6
			C86.7,30.6,86.7,30.5,86.7,30.6c-0.1-0.1-0.1-0.1-0.1-0.1C86.7,30.6,86.7,30.6,86.7,30.6z M86.7,24c0,0,0.1,0,0.1-0.1
			C86.8,23.9,86.7,23.9,86.7,24z M86.8,23.8c0.1,0,0.2-0.1,0.2-0.2c0-0.1,0-0.2-0.1-0.2c0,0.1,0,0.2-0.1,0.2
			C86.8,23.6,86.8,23.7,86.8,23.8z M87.1,15.2c0-0.1,0-0.1-0.1-0.1C87,15.1,87,15.2,87.1,15.2z M87.2,23.1c0-0.1,0-0.1-0.1-0.2
			c0,0.1,0,0.1,0,0.1c0,0,0,0,0,0.1C87.1,23.2,87.1,23.2,87.2,23.1z M87.1,30.5L87.1,30.5L87.1,30.5z M87.2,15.1L87.2,15.1
			L87.2,15.1L87.2,15.1L87.2,15.1z M87.3,15.6C87.3,15.6,87.3,15.6,87.3,15.6C87.2,15.6,87.2,15.6,87.3,15.6z M87.3,30.4
			C87.4,30.4,87.4,30.5,87.3,30.4C87.3,30.5,87.3,30.4,87.3,30.4z M88.5,29.9v0.2c-0.2,0-0.4,0-0.6,0.1c-0.2,0.1-0.4,0.2-0.6,0.1
			c0.1-0.1,0.3-0.2,0.5-0.3C88.1,30,88.3,29.9,88.5,29.9z M87.6,15C87.6,14.9,87.5,14.9,87.6,15C87.5,15.1,87.6,15.1,87.6,15z
			 M87.8,28.2C87.8,28.3,87.8,28.3,87.8,28.2C87.7,28.3,87.7,28.3,87.8,28.2C87.8,28.3,87.8,28.3,87.8,28.2z M87.9,28.2H88
			C88,28.2,88,28.2,87.9,28.2L87.9,28.2z M88,27.8C88.1,27.7,88.1,27.7,88,27.8C88,27.8,88,27.8,88,27.8z M93.3,25.7L93.3,25.7
			c0.1-0.1,0.2-0.2,0.2-0.2c0,0,0.1-0.1,0.1-0.2c-0.1,0-0.1,0.1-0.1,0.2c0,0.1,0,0.1-0.1,0c0,0,0-0.1-0.1-0.1
			c-0.1,0.1-0.1,0.1-0.1,0.1c-0.3,0.1-0.7,0.2-1,0.4c-0.3,0.2-0.7,0.4-1,0.5c0-0.1,0-0.1-0.1-0.1c-0.1,0.1-0.1,0.1-0.1,0.1
			c-0.1,0.1-0.3,0.2-0.4,0.2c-0.1,0-0.2,0.1-0.3,0.2c-0.3,0-0.6,0.2-0.8,0.3c-0.2,0.2-0.5,0.3-0.9,0.3c0,0.1-0.1,0.1-0.2,0.1
			c-0.1,0-0.1,0-0.1,0.1c0.1,0,0.3-0.1,0.4-0.1c0.1,0,0.3-0.1,0.4-0.1c0,0.1-0.1,0.1-0.3,0.1s-0.2,0.1-0.3,0.2
			c0.4-0.1,0.8-0.3,1.3-0.4c0.4-0.1,0.8-0.3,1.1-0.6c0,0,0,0.1,0.1,0.1c0.4-0.2,0.8-0.4,1.3-0.6C92.6,26.2,93,26,93.3,25.7
			L93.3,25.7z M88.2,27.3c0.1,0,0.3-0.1,0.4-0.2C88.3,27.2,88.2,27.2,88.2,27.3z M88.3,29.6L88.3,29.6L88.3,29.6L88.3,29.6
			L88.3,29.6z M88.4,26.8C88.5,26.9,88.5,26.9,88.4,26.8C88.5,26.7,88.5,26.7,88.4,26.8z M88.5,28C88.6,28.1,88.6,28.1,88.5,28
			c0.1,0,0.1-0.1,0.1-0.1L88.5,28L88.5,28z M88.8,15.3h-0.2c0,0.1,0.1,0.1,0.2,0.1V15.3z M88.6,27.1c0,0,0.1,0,0.2-0.1
			C88.7,26.8,88.6,26.9,88.6,27.1z M88.7,29.8c0,0,0,0.1,0,0.1c0.1,0,0.1,0,0.1,0c0-0.1,0-0.1,0.1-0.1c0,0,0,0.1,0,0.1
			c0,0,0,0,0,0.1c-0.1,0-0.2,0-0.2,0.1c0,0-0.1,0-0.2,0L88.7,29.8C88.7,29.7,88.7,29.7,88.7,29.8z M88.7,27.9c0.2,0.1,0.3,0,0.4-0.2
			c-0.1,0-0.2,0.1-0.2,0.1C88.8,27.8,88.8,27.9,88.7,27.9z M88.8,29.1L88.8,29.1L88.8,29.1L88.8,29.1L88.8,29.1z M94.2,24.6
			c-0.1,0.1-0.4,0.2-0.8,0.3c0,0.1,0,0.1-0.1,0.1c-0.6,0.2-1.2,0.4-1.8,0.7c-0.1,0-0.1,0-0.1,0c0,0,0,0-0.1,0c0,0,0,0.1-0.1,0.1
			c-0.3,0.2-0.7,0.4-1.1,0.5c-0.4,0.1-0.8,0.3-1.1,0.5c0.4-0.1,0.9-0.3,1.5-0.6c0.6-0.2,1.1-0.5,1.5-0.7h0.3c0-0.1,0-0.1,0.1-0.1
			c0,0,0.1,0,0.1-0.1v0.1c0,0,0,0,0.1,0c0.2-0.2,0.5-0.3,0.8-0.4c0.3-0.1,0.6-0.2,0.9-0.4L94.2,24.6L94.2,24.6z M88.9,28.8
			c0,0,0.1,0,0.2-0.1C89,28.7,88.9,28.7,88.9,28.8z M89,28.5C89.1,28.5,89.1,28.4,89,28.5L89,28.5L89,28.5z M89.8,29.3
			c-0.1,0.2-0.4,0.4-0.8,0.5c0-0.1,0-0.1,0.1-0.1c0.1,0,0.1,0,0-0.1c0,0,0.1,0,0.1,0.1c0.1-0.1,0.2-0.2,0.3-0.3
			C89.6,29.4,89.7,29.3,89.8,29.3z M89.1,26.4L89.1,26.4L89.1,26.4L89.1,26.4z M89.1,28.2c0.1,0,0.2,0,0.3-0.1
			c0.1-0.1,0.2-0.1,0.3-0.1l-0.2-0.2c0,0.1,0,0.2-0.1,0.3C89.2,28.1,89.1,28.1,89.1,28.2z M89.3,27.7v-0.1c0,0.1,0,0.1-0.1,0.1
			c-0.1,0-0.1,0,0,0.1H89.3z M89.2,27.4h0.1H89.2L89.2,27.4L89.2,27.4z M91.9,26.6c-0.1,0-0.2,0-0.3,0.1c-0.1,0-0.2,0.1-0.3,0.1
			c-0.3,0.2-0.6,0.3-1,0.4c-0.4,0.1-0.7,0.2-1,0.5c0.2,0,0.5-0.1,0.7-0.3c0.2-0.1,0.5-0.2,0.7-0.1c0.1-0.1,0.3-0.2,0.6-0.3
			c0.3,0,0.6-0.2,0.7-0.4C92,26.5,92,26.5,91.9,26.6C92,26.6,92,26.6,91.9,26.6z M89.4,28.9C89.4,28.9,89.4,28.9,89.4,28.9
			C89.4,29,89.4,29,89.4,28.9C89.5,28.9,89.5,28.9,89.4,28.9z M89.7,16.1c0-0.1-0.1-0.2-0.2-0.2C89.5,16.1,89.5,16.1,89.7,16.1z
			 M89.6,16.3c0,0,0,0.1,0.1,0.1c0,0-0.1-0.1-0.3-0.2v0.2C89.6,16.3,89.6,16.3,89.6,16.3z M89.5,27.2c0.1,0,0.1,0.1,0.1,0.1
			C89.5,27.3,89.5,27.3,89.5,27.2z M89.6,16.6C89.6,16.6,89.6,16.6,89.6,16.6C89.6,16.5,89.6,16.5,89.6,16.6
			C89.5,16.6,89.5,16.6,89.6,16.6C89.6,16.7,89.6,16.6,89.6,16.6z M89.6,26.1L89.6,26.1L89.6,26.1L89.6,26.1L89.6,26.1z M89.9,28.8
			l-0.1-0.1c-0.1,0-0.1,0.1-0.1,0.1C89.7,28.7,89.8,28.8,89.9,28.8z M89.7,17L89.7,17L89.7,17L89.7,17L89.7,17z M89.8,27.1
			L89.8,27.1c-0.1,0.1-0.1,0.1-0.1,0H89.8z M89.8,28c0-0.1,0-0.1,0-0.2c-0.1,0-0.1,0.1-0.1,0.2C89.8,28.1,89.8,28.1,89.8,28z
			 M89.8,26c0.1,0.1,0.1,0.1-0.1,0.1C89.7,26.1,89.7,26.1,89.8,26C89.8,26.1,89.8,26.1,89.8,26z M89.8,26.3
			C89.9,26.2,89.9,26.2,89.8,26.3C89.7,26.4,89.7,26.4,89.8,26.3z M89.8,23.2C89.8,23.3,89.8,23.3,89.8,23.2
			C89.8,23.2,89.8,23.2,89.8,23.2L89.8,23.2z M89.8,24.6C89.8,24.7,89.8,24.7,89.8,24.6L89.8,24.6L89.8,24.6z M89.8,24.6
			c0-0.1,0-0.1,0.1-0.1C89.9,24.6,89.9,24.6,89.8,24.6z M90,16.3C90,16.3,90.1,16.3,90,16.3c0-0.1,0-0.1-0.1-0.1
			C89.8,16.2,89.8,16.3,90,16.3z M90,28L90,28c0-0.1,0-0.1-0.1-0.1C89.9,28,89.9,28,90,28z M90.1,23.6
			C90.1,23.5,90.1,23.5,90.1,23.6C90.1,23.7,90.1,23.7,90.1,23.6z M90.1,27.6c0,0,0.1,0,0.1-0.1C90.2,27.5,90.1,27.5,90.1,27.6z
			 M90.2,27L90.2,27L90.2,27L90.2,27z M90.2,28.6c0,0,0.1,0,0.1-0.1C90.3,28.5,90.2,28.6,90.2,28.6z M90.3,29.2L90.3,29.2L90.3,29.2
			L90.3,29.2L90.3,29.2z M90.5,25.7v0.1c0,0-0.1,0-0.1,0c0,0,0,0-0.1,0L90.5,25.7z M90.4,27.4C90.5,27.5,90.5,27.5,90.4,27.4
			C90.5,27.3,90.5,27.3,90.4,27.4z M90.6,27.7L90.6,27.7C90.6,27.8,90.6,27.8,90.6,27.7z M90.5,28.4c0.1,0,0.1,0,0.1-0.1h-0.1V28.4z
			 M90.7,17.5C90.7,17.5,90.7,17.5,90.7,17.5c0.1-0.1,0-0.2-0.1-0.2C90.6,17.4,90.6,17.5,90.7,17.5z M90.6,27.5
			c0.2-0.1,0.4-0.2,0.4-0.2C90.7,27.4,90.6,27.5,90.6,27.5z M90.7,19.2L90.7,19.2L90.7,19.2L90.7,19.2L90.7,19.2z M90.7,25.7
			L90.7,25.7L90.7,25.7L90.7,25.7z M90.7,27.7c0.1,0,0.2,0,0.2-0.1C90.8,27.5,90.8,27.6,90.7,27.7z M90.7,28.2
			c0,0.1,0.1,0.1,0.1,0.1c0,0,0.1-0.1,0.1-0.2C90.8,28.2,90.7,28.2,90.7,28.2z M90.8,28.8c0.1,0,0.1,0,0.1-0.1
			C90.8,28.7,90.7,28.7,90.8,28.8z M91,25.6c0,0-0.1,0.1-0.1,0.1C90.8,25.6,90.9,25.6,91,25.6z M91,27.5l-0.1,0.1
			C90.9,27.6,91,27.6,91,27.5z M91,28.7c0.1,0,0.1,0,0.1-0.1L91,28.7C91,28.6,91,28.6,91,28.7z M91,28.2C91,28.2,91,28.2,91,28.2
			c0.1-0.1,0.1-0.1,0.1-0.1C91,28.1,91,28.1,91,28.2C91,28.2,91,28.2,91,28.2z M91.2,27.2C91.1,27.2,91.1,27.2,91.2,27.2
			c-0.1-0.1-0.1-0.1-0.1-0.1c0,0.1,0,0.2,0,0.2C91.1,27.3,91.1,27.3,91.2,27.2z M91,27.5h0.1C91.2,27.5,91.1,27.4,91,27.5L91,27.5z
			 M91.2,25.4l-0.1,0.1C91,25.5,91,25.4,91.2,25.4z M91.2,27.4c0,0.1,0,0.1,0.1,0.1c0,0,0.1,0,0.1-0.1H91.2z M91.2,27.7L91.2,27.7
			L91.2,27.7L91.2,27.7L91.2,27.7z M91.3,28.5L91.3,28.5c0-0.1,0-0.1,0-0.1c0,0,0,0-0.1,0L91.3,28.5L91.3,28.5z M91.6,26.4
			c0,0-0.1,0.1-0.3,0.2C91.4,26.6,91.5,26.5,91.6,26.4z M91.4,27.1c0,0,0,0.1,0.1,0c0.1,0,0.1-0.1,0.1-0.1c0,0-0.1,0-0.1-0.1
			C91.5,27,91.4,27.1,91.4,27.1C91.3,27.1,91.3,27.1,91.4,27.1z M91.4,27.4C91.4,27.4,91.4,27.4,91.4,27.4c0.1,0,0.2-0.1,0.3-0.1
			c0.1,0,0.2,0,0.1-0.1c-0.1,0.1-0.2,0.1-0.3,0.1C91.5,27.3,91.5,27.4,91.4,27.4z M91.7,25.3c0,0-0.1,0.1-0.2,0.1
			C91.5,25.3,91.5,25.3,91.7,25.3z M91.8,26L91.8,26c-0.1,0-0.1,0-0.1,0.1C91.8,26.1,91.8,26.1,91.8,26z M91.9,26.3
			c-0.1,0.1-0.2,0.1-0.2,0.1C91.7,26.4,91.8,26.3,91.9,26.3z M91.7,27c0.2,0,0.4-0.1,0.6-0.2c-0.1,0-0.2,0-0.3,0
			C91.9,26.9,91.8,26.9,91.7,27z M91.8,28.5c0,0,0.1,0,0,0.1c0,0.1-0.1,0.1-0.1,0C91.7,28.6,91.7,28.5,91.8,28.5
			C91.8,28.5,91.8,28.5,91.8,28.5z M92,25.1c-0.1,0.1-0.2,0.1-0.2,0.1C91.8,25.2,91.8,25.1,92,25.1z M91.8,25.3L91.8,25.3L91.8,25.3
			l0.1,0.1h-0.1V25.3L91.8,25.3z M92,28.2c0,0,0,0-0.1-0.1C91.9,28.1,91.9,28.2,92,28.2z M92,27.1c0.1,0,0.2,0,0.2-0.1
			c0,0-0.1,0.1-0.1,0C92,27,92,27,92,27.1z M92.1,25.1C92.1,25.2,92.1,25.2,92.1,25.1C92.1,25,92.1,25,92.1,25.1z M92.2,28.3
			c0,0,0.1,0,0,0.1c0,0.1-0.1,0.1-0.1,0L92.2,28.3C92.2,28.4,92.2,28.4,92.2,28.3z M92.2,26.5c0.1,0,0.2,0,0.2-0.1
			C92.3,26.4,92.2,26.4,92.2,26.5z M92.5,26c0,0.1-0.1,0.1-0.2,0.1C92.3,26.2,92.4,26.2,92.5,26z M92.3,27.1
			C92.3,27.1,92.4,27,92.3,27.1C92.3,27,92.3,27,92.3,27.1z M92.4,25c0,0,0.1-0.1,0.3-0.2c0,0.1,0,0.1,0,0.1c0,0,0,0,0,0.1H92.4z
			 M92.4,26.5c0,0.1,0,0.1,0,0.1C92.5,26.7,92.5,26.6,92.4,26.5z M92.4,27c0.1,0,0.1,0,0.1-0.1L92.4,27C92.5,26.9,92.4,26.9,92.4,27
			z M92.9,26.3C92.9,26.4,92.9,26.4,92.9,26.3c0.1-0.1,0-0.1-0.2-0.1c-0.2,0-0.2,0.1-0.2,0.2C92.6,26.4,92.7,26.3,92.9,26.3z
			 M92.6,27.1L92.6,27.1C92.5,27.1,92.6,27.1,92.6,27.1z M92.6,26.7c0.1-0.1,0.2-0.2,0.3-0.2C92.7,26.4,92.6,26.4,92.6,26.7z
			 M92.6,28.1c0,0,0.1,0,0.1,0.1c-0.1,0-0.1,0-0.1,0C92.6,28.2,92.6,28.1,92.6,28.1z M93,25.7c0,0.1,0,0.1-0.1,0.1
			c-0.1,0-0.1,0-0.1,0.1C92.7,25.8,92.8,25.7,93,25.7z M92.9,27.9h0.1C93.1,27.9,93,27.9,92.9,27.9L92.9,27.9z M93.3,25.7
			C93.3,25.7,93.3,25.6,93.3,25.7L93.3,25.7z M93.5,25.7c0,0,0.1,0,0.2-0.1C93.6,25.6,93.5,25.6,93.5,25.7z M93.9,25.4
			C93.9,25.5,93.9,25.5,93.9,25.4C94,25.3,93.9,25.3,93.9,25.4z M94,25.1c0.1,0,0.1,0,0.1-0.1C94,25,94,25,94,25.1z M94.1,25.3
			C94.2,25.4,94.2,25.4,94.1,25.3C94.2,25.2,94.2,25.2,94.1,25.3z M94.3,24.6c-0.1,0.1-0.1,0.1,0,0.1C94.4,24.6,94.4,24.6,94.3,24.6
			z M94.5,23.8L94.5,23.8L94.5,23.8L94.5,23.8L94.5,23.8z M94.5,27.1L94.5,27.1l0.1,0.1C94.5,27.3,94.5,27.2,94.5,27.1z M94.8,27
			L94.8,27L94.8,27l0.1,0.1h-0.1V27L94.8,27z M95,23.7c0,0-0.1,0.1-0.1,0.1C94.8,23.7,94.9,23.7,95,23.7z M95.6,23.4L95.6,23.4
			L95.6,23.4z M99.4,23.6L99.4,23.6L99.4,23.6L99.4,23.6L99.4,23.6z M99.7,23.4c0.1,0.1,0.1,0.1-0.1,0.1
			C99.6,23.5,99.6,23.5,99.7,23.4C99.6,23.5,99.7,23.5,99.7,23.4z M99.9,23L99.9,23L99.9,23L99.9,23L99.9,23z M100.8,22
			c0,0-0.1,0.1-0.1,0.1C100.7,22.1,100.8,22,100.8,22z"/>
	</g>
	<g>
		<g>
			<path fill="#FFFFFF" d="M187.4,25.2v-5.8h-1.6v-1h1.6v-3.2h1.2v3.2h2.3v1h-2.3V25c0,0.9,0.3,1.5,1.4,1.5c0.3,0,0.7,0,0.9-0.1v1
				c-0.3,0.1-0.7,0.1-1.1,0.1C188,27.4,187.4,26.7,187.4,25.2z"/>
			<path fill="#FFFFFF" d="M193,18.4h1.2v1.8h0c0.7-1.1,1.8-1.9,3.5-1.9h0.2l-0.1,1.1c0,0-0.3,0-0.4,0c-1.5,0-2.6,0.8-3.3,2.2v5.8
				H193V18.4z"/>
			<path fill="#FFFFFF" d="M198.8,25.2c0-1.8,1.5-3,6-3.7V21c0-1.2-0.6-1.8-1.8-1.8c-1.4,0-2.4,0.6-3.3,1.4l-0.6-0.7
				c1.1-1,2.3-1.7,4.1-1.7c2,0,2.9,1.1,2.9,2.8v4c0,1.1,0.1,1.7,0.3,2.2H205c-0.1-0.4-0.2-0.8-0.2-1.3c-1,0.9-2.2,1.4-3.5,1.4
				C199.7,27.4,198.8,26.6,198.8,25.2z M204.8,25.1v-2.8c-3.8,0.6-4.9,1.6-4.9,2.8c0,0.9,0.6,1.4,1.6,1.4
				C202.8,26.5,203.9,25.9,204.8,25.1z"/>
			<path fill="#FFFFFF" d="M208.1,22.8c0-3.1,1.6-4.6,3.8-4.6c1.1,0,2.2,0.6,2.9,1.4v-4.8h1.2v10.3c0,1.1,0.1,1.7,0.3,2.2h-1.2
				c-0.1-0.3-0.2-0.8-0.2-1.3c-0.7,0.8-1.6,1.5-3,1.5C209.7,27.4,208.1,25.9,208.1,22.8z M214.7,25v-4.3c-0.9-0.9-1.7-1.5-2.8-1.5
				c-1.6,0-2.7,1.1-2.7,3.7c0,2.5,1.2,3.6,2.7,3.6C213,26.4,213.9,25.9,214.7,25z"/>
			<path fill="#FFFFFF" d="M218.1,22.8c0-3.2,2-4.6,3.9-4.6c2.1,0,3.6,1.6,3.6,4.6V23h-6.4c0,2.2,1.3,3.4,2.8,3.4
				c1.3,0,2.1-0.6,2.8-1.6l0.7,0.6c-0.8,1.3-1.9,2-3.6,2C219.9,27.5,218.1,25.9,218.1,22.8z M224.5,22.1c-0.1-1.7-0.9-2.9-2.5-2.9
				c-1.3,0-2.5,0.9-2.7,2.9H224.5z"/>
		</g>
	</g>
	<g>
		<g>
			<path fill="#FFFFFF" d="M186.3,34.7c0-3.2,2-4.6,4-4.6c1.9,0,2.9,1.1,3.4,2.4l-1,0.4c-0.5-1.2-1.2-1.9-2.5-1.9
				c-1.3,0-2.8,0.9-2.8,3.6c0,2.3,1.2,3.7,2.7,3.7c1.2,0,1.9-0.6,2.6-1.9l0.9,0.4c-0.7,1.5-1.7,2.5-3.6,2.5
				C188.1,39.4,186.3,37.7,186.3,34.7z"/>
			<path fill="#FFFFFF" d="M195.1,34.7c0-3,1.8-4.6,4-4.6c2.2,0,4,1.7,4,4.6c0,3-1.8,4.6-4,4.6C197,39.4,195.1,37.7,195.1,34.7z
				 M202,34.7c0-1.9-1-3.6-2.9-3.6c-1.8,0-2.9,1.5-2.9,3.6c0,2,1,3.7,2.9,3.7C200.9,38.4,202,36.8,202,34.7z"/>
			<path fill="#FFFFFF" d="M205.4,30.3h1.2v1.4c0.9-0.8,2-1.6,3.4-1.6c1.8,0,2.7,1,2.7,2.6v6.4h-1.2v-6.2c0-1.3-0.6-1.9-1.8-1.9
				c-1.1,0-2.1,0.6-3.1,1.6v6.5h-1.2V30.3z"/>
			<path fill="#FFFFFF" d="M214.6,37.7l0.7-0.7c0.7,0.8,1.5,1.3,2.8,1.3c1.5,0,2.3-0.6,2.3-1.6c0-1-0.7-1.4-2.5-1.8
				c-2-0.5-3.1-1-3.1-2.6c0-1.3,1.1-2.3,3-2.3c1.5,0,2.5,0.5,3.3,1.3l-0.7,0.8c-0.7-0.7-1.5-1.1-2.6-1.1c-1.4,0-1.9,0.6-1.9,1.3
				c0,0.9,0.6,1.2,2.2,1.6c2.2,0.5,3.4,1.1,3.4,2.8c0,1.6-1.5,2.6-3.5,2.6C216.5,39.3,215.2,38.7,214.6,37.7z"/>
			<path fill="#FFFFFF" d="M223.7,36.7v-6.4h1.2v6.2c0,1.3,0.5,1.9,1.8,1.9c1.1,0,2.1-0.6,3.1-1.6v-6.5h1.2v8.9h-1.2v-1.4
				c-0.9,0.8-2,1.6-3.4,1.6C224.5,39.4,223.7,38.4,223.7,36.7z"/>
			<path fill="#FFFFFF" d="M233.7,26.7h1.2v12.5h-1.2V26.7z"/>
			<path fill="#FFFFFF" d="M238.2,37.1v-5.8h-1.6v-1h1.6v-3.2h1.2v3.2h2.3v1h-2.3v5.6c0,0.9,0.3,1.5,1.4,1.5c0.3,0,0.7,0,0.9-0.1v1
				c-0.3,0.1-0.7,0.1-1.1,0.1C238.9,39.3,238.2,38.6,238.2,37.1z"/>
			<path fill="#FFFFFF" d="M243.9,26.9h1.2v1.3h-1.2V26.9z M243.9,30.3h1.2v8.9h-1.2V30.3z"/>
			<path fill="#FFFFFF" d="M247.8,30.3h1.2v1.4c0.9-0.8,2-1.6,3.4-1.6c1.8,0,2.7,1,2.7,2.6v6.4h-1.2v-6.2c0-1.3-0.6-1.9-1.8-1.9
				c-1.1,0-2.1,0.6-3.1,1.6v6.5h-1.2V30.3z"/>
			<path fill="#FFFFFF" d="M256.7,40.3c0-0.9,0.6-1.6,1.6-2c-0.5-0.2-0.8-0.6-0.8-1.1s0.4-1,1.1-1.3c-0.8-0.5-1.4-1.5-1.4-2.6
				c0-1.9,1.5-3.2,3.5-3.2c1,0,1.9,0.3,2.5,0.9c0.5-0.4,1.4-0.7,2.1-0.8v1.1c-0.5,0-1.1,0.1-1.6,0.3c0.3,0.5,0.5,1,0.5,1.7
				c0,1.9-1.5,3.2-3.5,3.2c-0.5,0-1-0.1-1.4-0.3c-0.4,0.2-0.7,0.4-0.7,0.8c0,0.4,0.3,0.6,1.3,0.7l1.9,0.2c2.1,0.2,3.1,0.9,3.1,2.3
				c0,1.6-1.7,2.5-4.1,2.5C258,42.6,256.7,41.7,256.7,40.3z M264,40.2c0-0.8-0.7-1.3-2.4-1.4l-1.8-0.1c-0.2,0-0.3,0-0.5-0.1
				c-1,0.3-1.5,0.9-1.5,1.6c0,0.9,1,1.5,3.2,1.5C262.9,41.7,264,41.1,264,40.2z M263.2,33.3c0-1.4-0.9-2.3-2.4-2.3
				c-1.5,0-2.4,0.9-2.4,2.3c0,1.4,0.9,2.2,2.4,2.2C262.3,35.6,263.2,34.7,263.2,33.3z"/>
		</g>
	</g>
	<line fill="none" stroke="#FFFFFF" stroke-width="3" stroke-miterlimit="10" x1="170.7" y1="13.4" x2="170.7" y2="41"/>
</g>
<g>
</g>
<g>
</g>
<g>
</g>
<g>
</g>
<g>
</g>
<g>
</g>
<g>
</g>
<g>
</g>
<g>
</g>
<g>
</g>
<g>
</g>
<g>
</g>
<g>
</g>
<g>
</g>
<g>
</g>
</svg>
